<?xml version="1.0" encoding="UTF-8"?>
<svg id="Layer_1" data-name="Layer 1" xmlns="http://www.w3.org/2000/svg" xmlns:xlink="http://www.w3.org/1999/xlink" viewBox="0 0 60 73">
  <defs>
    <style>
      .cls-1 {
        mask: url(#mask);
      }

      .cls-2 {
        mask: url(#mask-2-3);
      }

      .cls-3 {
        fill: #fff;
        fill-rule: evenodd;
        stroke-width: 0px;
      }

      .cls-4 {
        mask: url(#mask-3);
      }

      .cls-5 {
        mask: url(#mask-4);
      }

      .cls-6 {
        mask: url(#mask-1);
      }

      .cls-7 {
        fill: none;
        stroke: #fff;
        stroke-linecap: round;
        stroke-linejoin: round;
        stroke-width: 3px;
      }
    </style>
    <mask id="mask" x="0" y="0" width="60" height="72.21" maskUnits="userSpaceOnUse">
      <g id="mask-2">
        <polygon id="path-1" class="cls-3" points="0 72.21 60 72.21 60 0 0 0 0 72.21"/>
      </g>
    </mask>
    <mask id="mask-1" x="0" y="0" width="60" height="72.21" maskUnits="userSpaceOnUse">
      <g id="mask-2-2" data-name="mask-2">
        <polygon id="path-1-2" data-name="path-1" class="cls-3" points="0 72.21 60 72.21 60 0 0 0 0 72.21"/>
      </g>
    </mask>
    <mask id="mask-2-3" data-name="mask-2" x="0" y="0" width="60" height="72.21" maskUnits="userSpaceOnUse">
      <g id="mask-2-4" data-name="mask-2">
        <polygon id="path-1-3" data-name="path-1" class="cls-3" points="0 72.21 60 72.21 60 0 0 0 0 72.21"/>
      </g>
    </mask>
    <mask id="mask-3" x="0" y="0" width="60" height="72.21" maskUnits="userSpaceOnUse">
      <g id="mask-2-5" data-name="mask-2">
        <polygon id="path-1-4" data-name="path-1" class="cls-3" points="0 72.21 60 72.21 60 0 0 0 0 72.21"/>
      </g>
    </mask>
    <mask id="mask-4" x="0" y="0" width="60" height="72.21" maskUnits="userSpaceOnUse">
      <g id="mask-2-6" data-name="mask-2">
        <polygon id="path-1-5" data-name="path-1" class="cls-3" points="0 72.21 60 72.21 60 0 0 0 0 72.21"/>
      </g>
    </mask>
  </defs>
  <g id="z">
    <g id="Affiliate">
      <g id="_为何" data-name="为何">
        <g id="_材料" data-name="材料">
          <g id="_材料icon" data-name="材料icon">
            <path id="Stroke-1" class="cls-7" d="m9.65,58.16V5.91c0-2.43,1.97-4.4,4.4-4.4h33.84c4.12,4.12,6.48,6.48,10.6,10.6v46.05c0,2.43-1.97,4.4-4.4,4.4H14.05c-2.43,0-4.4-1.97-4.4-4.4Z"/>
            <polyline id="Stroke-3" class="cls-7" points="52.39 15.75 44.25 15.75 44.25 7.61"/>
            <g class="cls-1">
              <polygon id="Stroke-5" class="cls-7" points="19.83 23.89 27.97 23.89 27.97 15.75 19.83 15.75 19.83 23.89"/>
            </g>
            <g class="cls-6">
              <line id="Stroke-7" class="cls-7" x1="19.82" y1="40.18" x2="48.32" y2="40.18"/>
            </g>
            <g class="cls-2">
              <line id="Stroke-8" class="cls-7" x1="19.82" y1="48.32" x2="38.14" y2="48.32"/>
            </g>
            <g class="cls-4">
              <line id="Stroke-9" class="cls-7" x1="19.82" y1="32.04" x2="48.32" y2="32.04"/>
            </g>
            <g class="cls-5">
              <path id="Stroke-10" class="cls-7" d="m40.18,70.7H8.28c-3.74,0-6.77-3.03-6.77-6.77V13.72"/>
            </g>
          </g>
        </g>
      </g>
    </g>
  </g>
</svg>