<?xml version="1.0" encoding="UTF-8"?>
<svg width="82px" height="74px" viewBox="0 0 82 74" version="1.1" xmlns="http://www.w3.org/2000/svg" xmlns:xlink="http://www.w3.org/1999/xlink">
    <title>收益icon</title>
    <defs>
        <polygon id="path-1" points="-8.76565002e-16 0.00394769782 57.5258526 0.00394769782 57.5258526 15.7868436 -8.76565002e-16 15.7868436"></polygon>
        <polygon id="path-3" points="0 0.339502012 75.6852626 0.339502012 75.6852626 15.4512893 0 15.4512893"></polygon>
    </defs>
    <g id="z" stroke="none" stroke-width="1" fill="none" fill-rule="evenodd">
        <g id="Affiliate" transform="translate(-463, -1077)">
            <g id="为何" transform="translate(360, 921)">
                <g id="收益" transform="translate(0, 99)">
                    <g id="收益icon" transform="translate(103, 57)">
                        <g id="编组" transform="translate(2.8613, 0)">
                            <mask id="mask-2" fill="white">
                                <use xlink:href="#path-1"></use>
                            </mask>
                            <g id="Clip-2"></g>
                            <path d="M4.35825839,2.77523157 C3.48976487,2.77523157 2.76338847,3.48581717 2.76338847,4.37010148 L2.76338847,10.0705771 C2.76338847,10.9548614 3.48976487,11.6654471 4.35825839,11.6654471 L53.1675942,11.6654471 C54.0360877,11.6654471 54.7466733,10.9548614 54.7466733,10.0705771 L54.7466733,4.37010148 C54.7466733,3.48581717 54.0360877,2.77523157 53.1675942,2.77523157 L4.35825839,2.77523157 Z M53.1675942,14.4446263 L4.35825839,14.4446263 C1.95805812,14.4446263 0,12.4865682 0,10.0705771 L0,4.37010148 C0,1.95411042 1.95805812,-0.00394769782 4.35825839,-0.00394769782 L53.1675942,-0.00394769782 C55.5677945,-0.00394769782 57.5258526,1.95411042 57.5258526,4.37010148 L57.5258526,10.0705771 C57.5258526,12.4865682 55.5677945,14.4446263 53.1675942,14.4446263 L53.1675942,14.4446263 Z" id="Fill-1" fill="#FFFFFF" mask="url(#mask-2)"></path>
                        </g>
                        <path d="M14.9380885,26.1061257 L4.35825839,26.1061257 C1.95805812,26.1061257 0,24.1480676 0,21.7478673 L0,16.0316008 C0,13.6314006 1.95805812,11.6733424 4.35825839,11.6733424 L53.1675942,11.6733424 C55.5677945,11.6733424 57.5258526,13.6314006 57.5258526,16.0316008 L57.5258526,19.5371565 C57.5258526,20.2951145 56.9100117,20.9267461 56.136263,20.9267461 C55.378305,20.9267461 54.7624641,20.2951145 54.7624641,19.5371565 L54.7624641,16.0316008 C54.7624641,15.1473165 54.0518785,14.4367309 53.1675942,14.4367309 L4.35825839,14.4367309 C3.48976487,14.4367309 2.77917926,15.1473165 2.77917926,16.0316008 L2.77917926,21.7478673 C2.77917926,22.6163608 3.48976487,23.3269464 4.35825839,23.3269464 L14.9380885,23.3269464 C15.7118373,23.3269464 16.3276782,23.9585781 16.3276782,24.716536 C16.3276782,25.4902848 15.7118373,26.1061257 14.9380885,26.1061257" id="Fill-3" fill="#FFFFFF"></path>
                        <path d="M14.2827707,37.7707832 C11.8825704,37.7707832 9.92451231,35.8127251 9.92451231,33.4125248 L9.92451231,27.6962584 C9.92451231,25.2960581 11.8825704,23.338 14.2827707,23.338 L41.8219107,23.338 C42.5798687,23.338 43.2115003,23.9538408 43.2115003,24.7117988 C43.2115003,25.4855476 42.5798687,26.1013884 41.8219107,26.1013884 L14.2827707,26.1013884 C13.3984864,26.1013884 12.6879008,26.811974 12.6879008,27.6962584 L12.6879008,33.4125248 C12.6879008,34.2810183 13.3984864,34.9916039 14.2827707,34.9916039 C15.0407287,34.9916039 15.6723603,35.6232356 15.6723603,36.3811936 C15.6723603,37.1549423 15.0407287,37.7707832 14.2827707,37.7707832" id="Fill-5" fill="#FFFFFF"></path>
                        <path d="M17.4883013,49.4370198 L11.4246375,49.4370198 C9.02443721,49.4370198 7.06637909,47.4789617 7.06637909,45.0787614 L7.06637909,39.3624949 C7.06637909,36.9622947 9.02443721,35.0042366 11.4246375,35.0042366 L34.8423809,35.0042366 C35.6003389,35.0042366 36.2319706,35.6200774 36.2319706,36.3780354 C36.2319706,37.1517842 35.6003389,37.767625 34.8423809,37.767625 L11.4246375,37.767625 C10.556144,37.767625 9.82976757,38.4782106 9.82976757,39.3624949 L9.82976757,45.0787614 C9.82976757,45.9472549 10.556144,46.6578405 11.4246375,46.6578405 L17.4883013,46.6578405 C18.2620501,46.6578405 18.877891,47.2894722 18.877891,48.0474301 C18.877891,48.8211789 18.2620501,49.4370198 17.4883013,49.4370198" id="Fill-7" fill="#FFFFFF"></path>
                        <path d="M18.1515146,61.1016773 C15.7513143,61.1016773 13.7932562,59.1436192 13.7932562,56.7434189 L13.7932562,51.0271525 C13.7932562,48.6269522 15.7513143,46.6688941 18.1515146,46.6688941 L33.3106742,46.6688941 C34.0686322,46.6688941 34.7002638,47.2847349 34.7002638,48.0426929 C34.7002638,48.8164417 34.0686322,49.4322825 33.3106742,49.4322825 L18.1515146,49.4322825 C17.2672303,49.4322825 16.5566446,50.1428681 16.5566446,51.0271525 L16.5566446,56.7434189 C16.5566446,57.6119124 17.2672303,58.322498 18.1515146,58.322498 C18.9094725,58.322498 19.5411042,58.9541297 19.5411042,59.7120877 C19.5411042,60.4858364 18.9094725,61.1016773 18.1515146,61.1016773" id="Fill-9" fill="#FFFFFF"></path>
                        <g id="编组" transform="translate(4.5446, 57.3166)">
                            <mask id="mask-4" fill="white">
                                <use xlink:href="#path-3"></use>
                            </mask>
                            <g id="Clip-12"></g>
                            <path d="M74.2956729,15.4512893 L4.35825839,15.4512893 C1.95805812,15.4512893 0,13.4932311 0,11.0930309 L0,5.37676443 C0,2.97656415 1.95805812,1.01850604 4.35825839,1.01850604 L32.4027037,1.01850604 C33.1764525,1.01850604 33.7922933,1.6343469 33.7922933,2.39230488 C33.7922933,3.16605365 33.1764525,3.78189451 32.4027037,3.78189451 L4.35825839,3.78189451 C3.48976487,3.78189451 2.77917926,4.49248012 2.77917926,5.37676443 L2.77917926,11.0930309 C2.77917926,11.9615244 3.48976487,12.67211 4.35825839,12.67211 L74.2956729,12.67211 C75.0694217,12.67211 75.6852626,13.3037416 75.6852626,14.0616996 C75.6852626,14.8354484 75.0694217,15.4512893 74.2956729,15.4512893" id="Fill-11" fill="#FFFFFF" mask="url(#mask-4)"></path>
                        </g>
                        <path d="M53.6113154,21.4731075 C43.584163,21.4731075 35.4203239,32.3529627 35.4203239,45.7277629 C35.4203239,59.1183539 43.584163,69.9982091 53.6113154,69.9982091 C63.6384679,69.9982091 71.802307,59.1183539 71.802307,45.7277629 C71.802307,32.3529627 63.6384679,21.4731075 53.6113154,21.4731075 M53.6113154,72.7615976 C42.0524562,72.7615976 32.6411446,60.6342699 32.6411446,45.7277629 C32.6411446,30.8212559 42.0524562,18.6939282 53.6113154,18.6939282 C65.1701747,18.6939282 74.5814863,30.8212559 74.5814863,45.7277629 C74.5814863,60.6342699 65.1701747,72.7615976 53.6113154,72.7615976" id="Fill-19" fill="#FFFFFF"></path>
                        <path d="M53.6113154,29.4379826 C47.4686976,29.4379826 42.4630168,36.749119 42.4630168,45.7340792 C42.4630168,54.7190395 47.4686976,62.0301758 53.6113154,62.0301758 C59.7539333,62.0301758 64.7596141,54.7190395 64.7596141,45.7340792 C64.7596141,36.749119 59.7539333,29.4379826 53.6113154,29.4379826 M53.6113154,64.8093551 C45.9369909,64.8093551 39.6996283,56.2507462 39.6996283,45.7340792 C39.6996283,35.2174122 45.9369909,26.6745942 53.6113154,26.6745942 C61.28564,26.6745942 67.5230026,35.2174122 67.5230026,45.7340792 C67.5230026,56.2507462 61.28564,64.8093551 53.6113154,64.8093551" id="Fill-21" fill="#FFFFFF"></path>
                        <path d="M61.0298292,72.7679139 L53.6081573,72.7679139 C52.8501993,72.7679139 52.2185677,72.152073 52.2185677,71.3783243 C52.2185677,70.6203663 52.8501993,69.9887346 53.6081573,69.9887346 L61.0298292,69.9887346 C71.0569816,69.9887346 79.2208207,59.1088794 79.2208207,45.7340792 C79.2208207,32.359279 71.0569816,21.4794238 61.0298292,21.4794238 L53.6081573,21.4794238 C52.8501993,21.4794238 52.2185677,20.8477922 52.2185677,20.0898342 C52.2185677,19.3160854 52.8501993,18.7002446 53.6081573,18.7002446 L61.0298292,18.7002446 C72.5886884,18.7002446 82,30.8275723 82,45.7340792 C82,60.6405862 72.5886884,72.7679139 61.0298292,72.7679139" id="Fill-23" fill="#FFFFFF"></path>
                        <g id="编组-2备份" transform="translate(45.5219, 30.5856)" fill="#FFFFFF">
                            <path d="M8.09502262,10.1733651 C7.30250292,10.1733651 6.65554807,9.52641024 6.65554807,8.73389054 L6.65554807,7.43998083 C6.65554807,6.64746113 7.30250292,6.00050628 8.09502262,6.00050628 C8.88754232,6.00050628 9.53449717,6.64746113 9.53449717,7.43998083 L9.53449717,8.73389054 C9.53449717,9.52641024 8.88754232,10.1733651 8.09502262,10.1733651" id="Fill-15备份"></path>
                            <path d="M8.09502262,22.9280801 C5.41015997,22.9280801 3.22668734,20.8578245 3.22668734,18.3023528 C3.22668734,17.4936593 3.87364219,16.8628783 4.68233576,16.8628783 C5.47485546,16.8628783 6.12181031,17.4936593 6.12181031,18.3023528 C6.12181031,19.2566113 7.01137324,20.0491309 8.09502262,20.0491309 C9.178672,20.0491309 10.0682349,19.2566113 10.0682349,18.3023528 C10.0682349,17.3319206 9.178672,16.5555747 8.09502262,16.5555747 C5.41015997,16.5555747 3.22668734,14.4691453 3.22668734,11.9136737 C3.22668734,9.37437585 5.41015997,7.28794644 8.09502262,7.28794644 C10.7798853,7.28794644 12.947184,9.37437585 12.947184,11.9136737 C12.947184,12.7223672 12.3002292,13.3693221 11.5077095,13.3693221 C10.7151898,13.3693221 10.0682349,12.7223672 10.0682349,11.9136737 C10.0682349,10.9594152 9.178672,10.1668955 8.09502262,10.1668955 C7.01137324,10.1668955 6.12181031,10.9594152 6.12181031,11.9136737 C6.12181031,12.8841059 7.01137324,13.6604518 8.09502262,13.6604518 C10.7798853,13.6604518 12.947184,15.7468812 12.947184,18.3023528 C12.947184,20.8578245 10.7798853,22.9280801 8.09502262,22.9280801" id="Fill-17备份"></path>
                            <path d="M8.09502262,24.390198 C7.30250292,24.390198 6.65554807,23.7432432 6.65554807,22.9507235 L6.65554807,21.4789012 C6.65554807,20.6863815 7.30250292,20.0394266 8.09502262,20.0394266 C8.88754232,20.0394266 9.53449717,20.6863815 9.53449717,21.4789012 L9.53449717,22.9507235 C9.53449717,23.7432432 8.88754232,24.390198 8.09502262,24.390198" id="Fill-19备份"></path>
                        </g>
                    </g>
                </g>
            </g>
        </g>
    </g>
</svg>