<?xml version="1.0" encoding="UTF-8"?>
<svg width="68px" height="79px" viewBox="0 0 68 79" version="1.1" xmlns="http://www.w3.org/2000/svg" xmlns:xlink="http://www.w3.org/1999/xlink">
    <title>奖金icon</title>
    <defs>
        <polygon id="path-1" points="0 0.560515606 40.9590196 0.560515606 40.9590196 14.4868832 0 14.4868832"></polygon>
    </defs>
    <g id="z" stroke="none" stroke-width="1" fill="none" fill-rule="evenodd">
        <g id="Affiliate" transform="translate(-1078, -1075)">
            <g id="为何" transform="translate(360, 921)">
                <g id="额外奖金" transform="translate(608, 99)">
                    <g id="奖金icon" transform="translate(110, 55)">
                        <path d="M12.9751722,9.62883051 L15.2021873,41.0327519 C15.6536092,47.337612 20.965341,52.2731588 27.2852485,52.2731588 L40.7225757,52.2731588 C47.0424832,52.2731588 52.3391676,47.337612 52.7905896,41.0327519 L55.0176046,9.62883051 L12.9751722,9.62883051 Z M40.7225757,54.9515958 L27.2852485,54.9515958 C19.5508855,54.9515958 13.080504,48.9175889 12.5237503,41.2283681 L10.1914035,8.37989641 C10.1763561,8.00371144 10.2967353,7.64257387 10.552541,7.37172069 C10.8083468,7.10086751 11.1694844,6.95039352 11.530622,6.95039352 L56.4621549,6.95039352 C56.8232924,6.95039352 57.18443,7.10086751 57.4402358,7.37172069 C57.6960416,7.64257387 57.8164208,8.00371144 57.8013734,8.37989641 L55.4690265,41.2283681 C54.9122728,48.9175889 48.4418913,54.9515958 40.7225757,54.9515958 L40.7225757,54.9515958 Z" id="Fill-1" fill="#FFFFFF"></path>
                        <path d="M11.5862973,2.67843699 C10.4126002,2.67843699 9.4495667,3.64147052 9.4495667,4.81516763 C9.4495667,5.98886473 10.4126002,6.95189826 11.5862973,6.95189826 L56.4124985,6.95189826 C57.5861956,6.95189826 58.5492291,5.98886473 58.5492291,4.81516763 C58.5492291,3.64147052 57.5861956,2.67843699 56.4124985,2.67843699 L11.5862973,2.67843699 Z M56.4124985,9.63033525 L11.5862973,9.63033525 C8.93795514,9.63033525 6.77112971,7.46350982 6.77112971,4.81516763 C6.77112971,2.15177803 8.93795514,-3.15303339e-14 11.5862973,-3.15303339e-14 L56.4124985,-3.15303339e-14 C59.0608406,-3.15303339e-14 61.2276661,2.15177803 61.2276661,4.81516763 C61.2276661,7.46350982 59.0608406,9.63033525 56.4124985,9.63033525 L56.4124985,9.63033525 Z" id="Fill-3" fill="#FFFFFF"></path>
                        <g id="编组" transform="translate(0, 17.5362)" fill="#FFFFFF">
                            <path d="M3.97983723,22.2099607 C3.28765688,22.2099607 2.70080833,21.6682543 2.64061873,20.976074 L1.43682683,5.28163699 C1.33149503,3.92737109 1.7979644,2.5731052 2.71585573,1.56492948 C3.64879445,0.571801156 4.95791815,0 6.31218405,0 L12.2860014,0 C13.0233239,0 13.6252199,0.601895953 13.6252199,1.3392185 C13.6252199,2.07654104 13.0233239,2.67843699 12.2860014,2.67843699 L6.31218405,2.67843699 C5.69524069,2.67843699 5.10839214,2.93424277 4.68706497,3.38566474 C4.26573781,3.8521341 4.05507422,4.43898265 4.10021642,5.07097341 L5.31905572,20.7654104 C5.37924532,21.5027329 4.82249156,22.1497711 4.08516902,22.2099607 C4.05507422,22.2099607 4.00993203,22.2099607 3.97983723,22.2099607" id="Fill-5"></path>
                        </g>
                        <g id="编组" transform="translate(52.9526, 17.5362)" fill="#FFFFFF">
                            <path d="M11.0618432,22.2099607 C10.2191888,22.1497711 9.66243508,21.5027329 9.72262468,20.7654104 L10.941464,5.07097341 C10.9866062,4.43898265 10.7759426,3.8521341 10.3546154,3.38566474 C9.93328826,2.93424277 9.3464397,2.67843699 8.72949635,2.67843699 L2.75567902,2.67843699 C2.01835647,2.67843699 1.41646052,2.07654104 1.41646052,1.3392185 C1.41646052,0.601895953 2.01835647,0 2.75567902,0 L8.72949635,0 C10.0837622,0 11.3928859,0.571801156 12.3258247,1.56492948 C13.243716,2.5731052 13.7101854,3.92737109 13.619901,5.28163699 L12.4010617,20.976074 C12.3408721,21.6682543 11.7540235,22.2099607 11.0618432,22.2099607" id="Fill-7"></path>
                        </g>
                        <path d="M38.9740679,70.7679167 L29.0277373,70.7679167 C26.7555801,70.7679167 24.8596078,69.0675606 24.6038021,66.8104508 L23.1742992,53.463408 C23.0840148,52.7260855 23.6257211,52.064 24.3630437,51.988763 C25.1003662,51.913526 25.7624518,52.4401849 25.8376888,53.1775075 L27.2822391,66.5245502 C27.3725234,67.4123468 28.1248934,68.0894797 29.0277373,68.0894797 L38.9740679,68.0894797 C39.8769119,68.0894797 40.6142344,67.4123468 40.7195662,66.5245502 L42.1641165,53.1775075 C42.2393535,52.4401849 42.901439,51.913526 43.6387616,51.988763 C44.3760841,52.064 44.9027431,52.7260855 44.8275061,53.463408 L43.3829558,66.8104508 C43.1421974,69.0675606 41.2462252,70.7679167 38.9740679,70.7679167" id="Fill-9" fill="#FFFFFF"></path>
                        <g id="编组" transform="translate(13.5124, 63.6347)">
                            <mask id="mask-2" fill="white">
                                <use xlink:href="#path-1"></use>
                            </mask>
                            <g id="Clip-12"></g>
                            <path d="M34.5638751,14.4868832 L6.4101919,14.4868832 C2.87405318,14.4868832 0,11.61283 0,8.09173872 C0,4.5556 2.87405318,1.68154682 6.4101919,1.68154682 L12.4291514,1.68154682 C13.166474,1.68154682 13.7683699,2.28344277 13.7683699,3.03581271 C13.7683699,3.77313526 13.166474,4.37503121 12.4291514,4.37503121 L6.4101919,4.37503121 C4.36374566,4.37503121 2.69348439,6.04529248 2.69348439,8.09173872 C2.69348439,10.138185 4.36374566,11.8084462 6.4101919,11.8084462 L34.5638751,11.8084462 C36.6103214,11.8084462 38.2805826,10.138185 38.2805826,8.09173872 C38.2805826,6.04529248 36.6103214,4.37503121 34.5638751,4.37503121 L28.5449156,4.37503121 C27.7925456,4.37503121 27.2056971,3.77313526 27.2056971,3.03581271 C27.2056971,2.28344277 27.7925456,1.68154682 28.5449156,1.68154682 L34.5638751,1.68154682 C38.1000138,1.68154682 40.9590196,4.5556 40.9590196,8.09173872 C40.9590196,11.61283 38.1000138,14.4868832 34.5638751,14.4868832" id="Fill-11" fill="#FFFFFF" mask="url(#mask-2)"></path>
                        </g>
                        <path d="M33.9978932,17.2367954 C28.1745498,17.2367954 23.4346192,23.3159445 23.4346192,30.7794543 C23.4346192,38.2580115 28.1745498,44.3371607 33.9978932,44.3371607 C39.8212365,44.3371607 44.5611671,38.2580115 44.5611671,30.7794543 C44.5611671,23.3159445 39.8212365,17.2367954 33.9978932,17.2367954 M33.9978932,47.0155976 C26.6848573,47.0155976 20.7411348,39.7326566 20.7411348,30.7794543 C20.7411348,21.8412994 26.6848573,14.5583584 33.9978932,14.5583584 C41.310929,14.5583584 47.2546515,21.8412994 47.2546515,30.7794543 C47.2546515,39.7326566 41.310929,47.0155976 33.9978932,47.0155976" id="Fill-13" fill="#FFFFFF"></path>
                        <path d="M33.9978932,26.1945119 C33.2605706,26.1945119 32.6586747,25.5926159 32.6586747,24.8552934 L32.6586747,23.6515015 C32.6586747,22.9141789 33.2605706,22.312283 33.9978932,22.312283 C34.7352157,22.312283 35.3371117,22.9141789 35.3371117,23.6515015 L35.3371117,24.8552934 C35.3371117,25.5926159 34.7352157,26.1945119 33.9978932,26.1945119" id="Fill-15" fill="#FFFFFF"></path>
                        <path d="M33.9978932,38.0608906 C31.5000249,38.0608906 29.4686261,36.1348236 29.4686261,33.7573345 C29.4686261,33.0049646 30.0705221,32.418116 30.822892,32.418116 C31.5602145,32.418116 32.1621105,33.0049646 32.1621105,33.7573345 C32.1621105,34.6451311 32.9897174,35.3824536 33.9978932,35.3824536 C35.0060689,35.3824536 35.8336758,34.6451311 35.8336758,33.7573345 C35.8336758,32.8544906 35.0060689,32.1322155 33.9978932,32.1322155 C31.5000249,32.1322155 29.4686261,30.191101 29.4686261,27.813612 C29.4686261,25.4511704 31.5000249,23.5100559 33.9978932,23.5100559 C36.4957614,23.5100559 38.5121128,25.4511704 38.5121128,27.813612 C38.5121128,28.5659819 37.9102169,29.1678779 37.1728943,29.1678779 C36.4355718,29.1678779 35.8336758,28.5659819 35.8336758,27.813612 C35.8336758,26.9258155 35.0060689,26.1884929 33.9978932,26.1884929 C32.9897174,26.1884929 32.1621105,26.9258155 32.1621105,27.813612 C32.1621105,28.7164559 32.9897174,29.4387311 33.9978932,29.4387311 C36.4957614,29.4387311 38.5121128,31.3798455 38.5121128,33.7573345 C38.5121128,36.1348236 36.4957614,38.0608906 33.9978932,38.0608906" id="Fill-17" fill="#FFFFFF"></path>
                        <path d="M33.9978932,39.4211755 C33.2605706,39.4211755 32.6586747,38.8192795 32.6586747,38.081957 L32.6586747,36.7126437 C32.6586747,35.9753211 33.2605706,35.3734252 33.9978932,35.3734252 C34.7352157,35.3734252 35.3371117,35.9753211 35.3371117,36.7126437 L35.3371117,38.081957 C35.3371117,38.8192795 34.7352157,39.4211755 33.9978932,39.4211755" id="Fill-19" fill="#FFFFFF"></path>
                    </g>
                </g>
            </g>
        </g>
    </g>
</svg>