<?xml version="1.0" encoding="UTF-8"?>
<svg width="82px" height="78px" viewBox="0 0 82 78" version="1.1" xmlns="http://www.w3.org/2000/svg" xmlns:xlink="http://www.w3.org/1999/xlink">
    <title>30天窗口icon</title>
    <g id="z" stroke="none" stroke-width="1" fill="none" fill-rule="evenodd">
        <g id="Affiliate" transform="translate(-767, -1075)" fill="#FFFFFF">
            <g id="为何" transform="translate(360, 921)">
                <g id="30天" transform="translate(304, 99)">
                    <g id="30天窗口icon" transform="translate(103, 55)">
                        <g id="编组" transform="translate(49.1258, 0)">
                            <path d="M16.4371062,2.72929561 C8.8778773,2.72929561 2.74462873,6.96123712 2.74462873,12.1591653 C2.74462873,17.3724266 8.8778773,21.6043681 16.4371062,21.6043681 C23.996335,21.6043681 30.1295836,17.3724266 30.1295836,12.1591653 C30.1295836,6.96123712 23.996335,2.72929561 16.4371062,2.72929561 M16.4371062,24.3336637 C7.3752314,24.3336637 0,18.8750725 0,12.1591653 C0,5.45859122 7.3752314,0 16.4371062,0 C25.4989809,0 32.8742123,5.45859122 32.8742123,12.1591653 C32.8742123,18.8750725 25.4989809,24.3336637 16.4371062,24.3336637" id="Fill-1"></path>
                        </g>
                        <g id="编组" transform="translate(49.1243, 10.7915)">
                            <path d="M16.4371062,21.2057069 C11.3158436,21.2057069 6.37857851,19.9023916 2.51463191,17.5410909 C0.950653528,16.5904374 0,14.9344603 0,13.1251519 L0,1.36464781 C0,0.613324856 0.613324856,0 1.37998093,0 C2.13130388,0 2.74462873,0.613324856 2.74462873,1.36464781 L2.74462873,13.1251519 C2.74462873,13.9684736 3.18928925,14.7504628 3.9406122,15.2104564 C7.3752314,17.3110941 11.8218366,18.4764113 16.4371062,18.4764113 C21.0523757,18.4764113 25.4989809,17.3110941 28.9336001,15.2104564 C29.6849231,14.7504628 30.1295836,13.9684736 30.1295836,13.1251519 L30.1295836,1.36464781 C30.1295836,0.613324856 30.7429084,0 31.4942314,0 C32.2608875,0 32.8742123,0.613324856 32.8742123,1.36464781 L32.8742123,13.1251519 C32.8742123,14.9344603 31.9235588,16.5904374 30.3595804,17.5410909 C26.4956338,19.9023916 21.5583687,21.2057069 16.4371062,21.2057069" id="Fill-3"></path>
                        </g>
                        <g id="编组" transform="translate(49.1243, 18.4197)">
                            <path d="M16.4371062,21.2057069 C11.3158436,21.2057069 6.37857851,19.9023916 2.51463191,17.5410909 C0.950653528,16.5904374 0,14.9191271 0,13.1098188 L0,1.36464781 C0,0.613324856 0.613324856,0 1.37998093,0 C2.13130388,0 2.74462873,0.613324856 2.74462873,1.36464781 L2.74462873,13.1098188 C2.74462873,13.9684736 3.18928925,14.7504628 3.9406122,15.2104564 C7.3752314,17.3110941 11.8218366,18.4764113 16.4371062,18.4764113 C21.0523757,18.4764113 25.4989809,17.3110941 28.9336001,15.2104564 C29.6849231,14.7504628 30.1295836,13.9684736 30.1295836,13.1098188 L30.1295836,1.36464781 C30.1295836,0.613324856 30.7429084,0 31.4942314,0 C32.2608875,0 32.8742123,0.613324856 32.8742123,1.36464781 L32.8742123,13.1098188 C32.8742123,14.9191271 31.9235588,16.5904374 30.3595804,17.5410909 C26.4956338,19.9023916 21.5583687,21.2057069 16.4371062,21.2057069" id="Fill-5"></path>
                        </g>
                        <g id="编组" transform="translate(49.1258, 26.0464)">
                            <path d="M16.4371062,21.2057069 C11.3158436,21.2057069 6.37857851,19.9023916 2.51463191,17.5410909 C0.950653528,16.5904374 0,14.9344603 0,13.1251519 L0,1.36464781 C0,0.613324856 0.613324856,0 1.37998093,0 C2.13130388,0 2.74462873,0.613324856 2.74462873,1.36464781 L2.74462873,13.1251519 C2.74462873,13.9684736 3.18928925,14.7504628 3.9406122,15.2104564 C7.3752314,17.3110941 11.8218366,18.4764113 16.4371062,18.4764113 C21.0523757,18.4764113 25.4989809,17.3110941 28.9336001,15.2104564 C29.6849231,14.7504628 30.1295836,13.9684736 30.1295836,13.1251519 L30.1295836,1.36464781 C30.1295836,0.613324856 30.7429084,0 31.4942314,0 C32.2608875,0 32.8742123,0.613324856 32.8742123,1.36464781 L32.8742123,13.1251519 C32.8742123,14.9344603 31.9235588,16.5904374 30.3595804,17.5410909 C26.4956338,19.9023916 21.5583687,21.2057069 16.4371062,21.2057069" id="Fill-7"></path>
                        </g>
                        <path d="M59.5615101,13.5314796 L58.3501935,13.5314796 C57.5988706,13.5314796 56.9855457,12.9181548 56.9855457,12.1668318 C56.9855457,11.4155089 57.5988706,10.802184 58.3501935,10.802184 L59.5615101,10.802184 C60.3128331,10.802184 60.9261579,11.4155089 60.9261579,12.1668318 C60.9261579,12.9181548 60.3128331,13.5314796 59.5615101,13.5314796" id="Fill-9"></path>
                        <path d="M68.5635857,16.4141065 C67.8122628,16.4141065 67.1989379,15.8007816 67.1989379,15.0494587 C67.1989379,14.2981357 67.8122628,13.6848109 68.5635857,13.6848109 C69.4682399,13.6848109 70.2042297,12.9948204 70.2042297,12.1668318 C70.2042297,11.3235102 69.4682399,10.6488528 68.5635857,10.6488528 C67.6589315,10.6488528 66.9229417,11.3235102 66.9229417,12.1668318 C66.9229417,14.5127994 64.9756353,16.4141065 62.5683352,16.4141065 C60.1457021,16.4141065 58.1983956,14.5127994 58.1983956,12.1668318 C58.1983956,9.82086426 60.1457021,7.90422409 62.5683352,7.90422409 C63.3196582,7.90422409 63.932983,8.53288207 63.932983,9.28420502 C63.932983,10.035528 63.3196582,10.6488528 62.5683352,10.6488528 C61.6636811,10.6488528 60.9276912,11.3235102 60.9276912,12.1668318 C60.9276912,12.9948204 61.6636811,13.6848109 62.5683352,13.6848109 C63.4576563,13.6848109 64.1936461,12.9948204 64.1936461,12.1668318 C64.1936461,9.82086426 66.1562856,7.90422409 68.5635857,7.90422409 C70.9708858,7.90422409 72.9335253,9.82086426 72.9335253,12.1668318 C72.9335253,14.5127994 70.9708858,16.4141065 68.5635857,16.4141065" id="Fill-11"></path>
                        <path d="M72.9411919,13.5314796 L71.5612109,13.5314796 C70.809888,13.5314796 70.1965631,12.9181548 70.1965631,12.1668318 C70.1965631,11.4155089 70.809888,10.802184 71.5612109,10.802184 L72.9411919,10.802184 C73.6925148,10.802184 74.3058397,11.4155089 74.3058397,12.1668318 C74.3058397,12.9181548 73.6925148,13.5314796 72.9411919,13.5314796" id="Fill-13"></path>
                        <path d="M18.5607435,42.0188859 C17.8094205,42.0188859 17.1960957,41.4055611 17.1960957,40.6542381 C17.1960957,29.3690608 26.3653023,20.1998541 37.6504796,20.1998541 C38.4018026,20.1998541 39.0151274,20.813179 39.0151274,21.564502 C39.0151274,22.3158249 38.4018026,22.9291498 37.6504796,22.9291498 C27.8832813,22.9291498 19.9253913,30.8870398 19.9253913,40.6542381 C19.9253913,41.4055611 19.3120664,42.0188859 18.5607435,42.0188859" id="Fill-15"></path>
                        <path d="M37.3208175,17.4322257 C36.5694946,17.4322257 35.9561697,16.8189009 35.9561697,16.0675779 L35.9561697,10.1643262 C35.9561697,9.41300323 36.5694946,8.79967838 37.3208175,8.79967838 C38.0721405,8.79967838 38.6854653,9.41300323 38.6854653,10.1643262 L38.6854653,16.0675779 C38.6854653,16.8189009 38.0721405,17.4322257 37.3208175,17.4322257" id="Fill-17"></path>
                        <path d="M58.873053,63.5711214 C58.5203912,63.5711214 58.1677294,63.4331233 57.9070663,63.1724602 L54.3497822,59.6151761 C53.8131229,59.0785168 53.8131229,58.219862 54.3497822,57.6832028 C54.8864414,57.1465435 55.7450962,57.1465435 56.2817555,57.6832028 L59.8390396,61.2404869 C60.3756989,61.7771462 60.3756989,62.635801 59.8390396,63.1724602 C59.5783766,63.4331233 59.2257148,63.5711214 58.873053,63.5711214" id="Fill-19"></path>
                        <path d="M37.3208175,72.499598 C36.5694946,72.499598 35.9561697,71.8862731 35.9561697,71.1349502 L35.9561697,65.2316984 C35.9561697,64.4803755 36.5694946,63.8670506 37.3208175,63.8670506 C38.0721405,63.8670506 38.6854653,64.4803755 38.6854653,65.2316984 L38.6854653,71.1349502 C38.6854653,71.8862731 38.0721405,72.499598 37.3208175,72.499598" id="Fill-21"></path>
                        <path d="M15.7670487,63.5711214 C15.414387,63.5711214 15.0617252,63.4331233 14.8010621,63.1724602 C14.2644028,62.635801 14.2644028,61.7771462 14.8010621,61.2404869 L18.3583463,57.6832028 C18.8950055,57.1465435 19.7536603,57.1465435 20.2903196,57.6832028 C20.8269788,58.219862 20.8269788,59.0785168 20.2903196,59.6151761 L16.7330354,63.1724602 C16.4723723,63.4331233 16.1197105,63.5711214 15.7670487,63.5711214" id="Fill-23"></path>
                        <path d="M12.7341573,42.0188859 L6.84623871,42.0188859 C6.07958264,42.0188859 5.46625778,41.4055611 5.46625778,40.6542381 C5.46625778,39.9029152 6.07958264,39.2895903 6.84623871,39.2895903 L12.7341573,39.2895903 C13.4854803,39.2895903 14.0988051,39.9029152 14.0988051,40.6542381 C14.0988051,41.4055611 13.4854803,42.0188859 12.7341573,42.0188859" id="Fill-25"></path>
                        <path d="M19.3243329,24.0224013 C18.9716711,24.0224013 18.6190093,23.8844032 18.3583463,23.6237402 L14.8010621,20.066456 C14.2644028,19.5297967 14.2644028,18.6711419 14.8010621,18.1344827 C15.3377213,17.5978234 16.1963761,17.5978234 16.7330354,18.1344827 L20.2903196,21.6917669 C20.8269788,22.2284261 20.8269788,23.0870809 20.2903196,23.6237402 C20.0296565,23.8844032 19.6769947,24.0224013 19.3243329,24.0224013" id="Fill-27"></path>
                        <path d="M37.3208175,72.499598 C28.8109351,72.499598 20.8223789,69.1876437 14.7964622,63.1770602 C2.37663382,50.7572318 2.37663382,30.5481778 14.7964622,18.1283494 C22.6930197,10.2317919 33.9015314,7.08850203 44.7727145,9.67979955 C45.5087044,9.863797 45.9533649,10.5997868 45.7847005,11.3357767 C45.6007031,12.0717665 44.8647133,12.516427 44.1287234,12.3477627 C34.1928607,9.95579573 23.9503356,12.8537557 16.7284355,20.0603227 C5.38192562,31.4221657 5.38192562,49.8832439 16.7284355,61.2450869 C22.233026,66.7343443 29.546925,69.7703024 37.3208175,69.7703024 C45.0947101,69.7703024 52.408609,66.7343443 57.9131996,61.2450869 C62.1758073,56.967146 64.9817685,51.5852204 66.0090877,45.6513024 C66.1317527,44.9153126 66.8370762,44.4093195 67.5883992,44.5319845 C68.324389,44.6699826 68.830382,45.3753062 68.6923839,46.1266291 C67.5730661,52.5972064 64.5064418,58.5004581 59.8451729,63.1770602 C53.8192562,69.1876437 45.8306999,72.499598 37.3208175,72.499598" id="Fill-29"></path>
                        <path d="M37.3208175,77.9796556 C27.3542886,77.9796556 17.9704183,74.1003758 10.9325156,67.04714 C3.87927972,59.9939041 0,50.625367 0,40.658838 C0,30.676976 3.87927972,21.3084388 10.9325156,14.255203 C21.8956974,3.27668805 38.1641392,0.225396885 52.3779427,6.48131042 C53.0679332,6.78797285 53.3745956,7.60062828 53.0679332,8.29061875 C52.7766039,8.98060921 51.9639485,9.28727164 51.273958,8.98060921 C38.1028067,3.18468932 23.0303484,6.02131678 12.8644889,16.1871763 C6.33257914,22.719086 2.72929561,31.4129658 2.72929561,40.658838 C2.72929561,49.8893771 6.33257914,58.583257 12.8644889,65.1151667 C19.3963986,71.6470764 28.0749453,75.25036 37.3208175,75.25036 C46.5666897,75.25036 55.2452364,71.6470764 61.7771462,65.1151667 C67.3430692,59.5492436 70.7623553,52.5113409 71.6823426,44.7221152 C71.7590082,43.9707923 72.4336656,43.434133 73.2003216,43.5261318 C73.9363114,43.6181305 74.4729707,44.2927878 74.3963051,45.0441108 C73.3996522,53.4466613 69.7043699,61.0518895 63.7091195,67.04714 C56.6712167,74.1003758 47.2873464,77.9796556 37.3208175,77.9796556" id="Fill-31"></path>
                        <path d="M37.3208175,37.2318854 C35.4348436,37.2318854 33.9015314,38.7651976 33.9015314,40.6511715 C33.9015314,42.5371454 35.4348436,44.0704576 37.3208175,44.0704576 C39.2067915,44.0704576 40.7401036,42.5371454 40.7401036,40.6511715 C40.7401036,38.7651976 39.2067915,37.2318854 37.3208175,37.2318854 M37.3208175,46.7997532 C33.9321977,46.7997532 31.1722358,44.0397913 31.1722358,40.6511715 C31.1722358,37.2625517 33.9321977,34.5025898 37.3208175,34.5025898 C40.7094373,34.5025898 43.4693992,37.2625517 43.4693992,40.6511715 C43.4693992,44.0397913 40.7094373,46.7997532 37.3208175,46.7997532" id="Fill-33"></path>
                        <path d="M37.3208175,37.2318854 C36.5694946,37.2318854 35.9561697,36.6185606 35.9561697,35.8672376 L35.9561697,27.2806896 C35.9561697,26.5293667 36.5694946,25.9160418 37.3208175,25.9160418 C38.0721405,25.9160418 38.6854653,26.5293667 38.6854653,27.2806896 L38.6854653,35.8672376 C38.6854653,36.6185606 38.0721405,37.2318854 37.3208175,37.2318854" id="Fill-35"></path>
                        <path d="M32.533817,42.0188859 L25.2352512,42.0188859 C24.4839283,42.0188859 23.8706034,41.4055611 23.8706034,40.6542381 C23.8706034,39.9029152 24.4839283,39.2895903 25.2352512,39.2895903 L32.533817,39.2895903 C33.28514,39.2895903 33.8984648,39.9029152 33.8984648,40.6542381 C33.8984648,41.4055611 33.28514,42.0188859 32.533817,42.0188859" id="Fill-37"></path>
                    </g>
                </g>
            </g>
        </g>
    </g>
</svg>