<?xml version="1.0" encoding="UTF-8"?>
<svg width="22px" height="17px" viewBox="0 0 22 17" version="1.1" xmlns="http://www.w3.org/2000/svg" xmlns:xlink="http://www.w3.org/1999/xlink">
    <title>Fill 1</title>
    <g id="z" stroke="none" stroke-width="1" fill="none" fill-rule="evenodd">
        <g id="展会落地页" transform="translate(-1144, -1073)" fill="#FFFFFF">
            <g id="编组-4" transform="translate(735, 1051)">
                <g id="进入按钮" transform="translate(396, 6)">
                    <path d="M34.7475906,24.7411118 C35.0841365,24.3709808 35.0841365,23.805595 34.7475906,23.4353376 L28.27698,16.3177955 C27.9164854,15.921125 27.3026018,15.8917736 26.9059629,16.2523946 C26.5092924,16.6130157 26.4800358,17.2268992 26.8405304,17.6235381 L31.83583,23.1176852 L13.9705552,23.1176852 C13.4345525,23.1176852 13,23.5522377 13,24.0882089 C13,24.624338 13.4345525,25.0588905 13.9705552,25.0588905 L31.83583,25.0588905 L26.8405304,30.5530376 C26.4800358,30.9496765 26.5092924,31.56356 26.9059629,31.9241811 C27.3026018,32.2846757 27.9164854,32.2554191 28.27698,31.8587802 L34.7475906,24.7411118 Z" id="Fill-1"></path>
                </g>
            </g>
        </g>
    </g>
</svg>