<?xml version="1.0" encoding="UTF-8"?>
<svg width="88px" height="88px" viewBox="0 0 88 88" version="1.1" xmlns="http://www.w3.org/2000/svg" xmlns:xlink="http://www.w3.org/1999/xlink">
    <title>稳定收入</title>
    <g id="稳定收入" stroke="none" stroke-width="1" fill="none" fill-rule="evenodd">
        <g transform="translate(4, 5)" fill="#FFFFFF">
            <path d="M18.8594056,45.7925317 C18.1340439,45.7925317 17.5419118,45.2003997 17.5419118,44.4750379 L17.5419118,42.5654121 C17.5419118,41.825247 18.1340439,41.2479183 18.8594056,41.2479183 C19.5847674,41.2479183 20.1768994,41.825247 20.1768994,42.5654121 L20.1768994,44.4750379 C20.1768994,45.2003997 19.5847674,45.7925317 18.8594056,45.7925317" id="Fill-1"></path>
            <path d="M18.8594056,64.6874653 C15.33622,64.6874653 12.4791829,61.9784612 12.4791829,58.6477184 C12.4791829,57.9223567 13.0713149,57.3302246 13.7966767,57.3302246 C14.5220384,57.3302246 15.1141705,57.9223567 15.1141705,58.6477184 C15.1141705,60.5277377 16.8017468,62.0524777 18.8594056,62.0524777 C20.9170645,62.0524777 22.6046408,60.5277377 22.6046408,58.6477184 C22.6046408,56.7676992 20.9170645,55.2429592 18.8594056,55.2429592 C15.33622,55.2429592 12.4791829,52.5339551 12.4791829,49.2032123 C12.4791829,45.8576663 15.33622,43.1486622 18.8594056,43.1486622 C22.3825913,43.1486622 25.2396284,45.8576663 25.2396284,49.2032123 C25.2396284,49.9285741 24.6474964,50.5207061 23.9221346,50.5207061 C23.1967729,50.5207061 22.6046408,49.9285741 22.6046408,49.2032123 C22.6046408,47.3231931 20.9170645,45.7984531 18.8594056,45.7984531 C16.8017468,45.7984531 15.1141705,47.3231931 15.1141705,49.2032123 C15.1141705,51.0684283 16.8017468,52.6079716 18.8594056,52.6079716 C22.3825913,52.6079716 25.2396284,55.3169757 25.2396284,58.6477184 C25.2396284,61.9784612 22.3825913,64.6874653 18.8594056,64.6874653" id="Fill-3"></path>
            <path d="M18.8594056,66.8546686 C18.1340439,66.8546686 17.5419118,66.2625365 17.5419118,65.5371748 L17.5419118,63.3610895 C17.5419118,62.6357278 18.1340439,62.0435957 18.8594056,62.0435957 C19.5847674,62.0435957 20.1768994,62.6357278 20.1768994,63.3610895 L20.1768994,65.5371748 C20.1768994,66.2625365 19.5847674,66.8546686 18.8594056,66.8546686" id="Fill-5"></path>
            <path d="M18.8594056,37.8298361 C9.91821176,37.8298361 2.6349876,45.1130602 2.6349876,54.0542541 C2.6349876,62.995448 9.91821176,70.2638688 18.8594056,70.2638688 C27.8005995,70.2638688 35.0838237,62.995448 35.0838237,54.0542541 C35.0838237,45.1130602 27.8005995,37.8298361 18.8594056,37.8298361 M18.8594056,72.9136597 C8.46748825,72.9136597 0,64.4461715 0,54.0542541 C0,43.6475334 8.46748825,35.1948485 18.8594056,35.1948485 C29.251323,35.1948485 37.7188113,43.6475334 37.7188113,54.0542541 C37.7188113,64.4461715 29.251323,72.9136597 18.8594056,72.9136597" id="Fill-7"></path>
            <path d="M18.8594056,35.1904075 C21.0947041,35.1904075 23.2855927,35.5900966 25.3876614,36.3746716 L27.0308279,32.6738463 C27.1788609,32.3333703 27.0456312,32.0521076 26.9716147,31.9484845 C26.8975982,31.8448614 26.7051552,31.6080086 26.3350727,31.6080086 L11.3837386,31.6080086 C11.013656,31.6080086 10.8212131,31.8448614 10.7471966,31.9484845 C10.6879834,32.0521076 10.5399504,32.3333703 10.6879834,32.6738463 L12.3311498,36.3746716 C14.4332186,35.5900966 16.6241072,35.1904075 18.8594056,35.1904075 M11.6353947,39.394545 C11.4725584,39.394545 11.3245254,39.3649384 11.1616891,39.3057252 C10.8360164,39.1872988 10.569557,38.9356426 10.4363273,38.60997 L8.27504534,33.7396839 C7.816143,32.6886496 7.90496281,31.4747789 8.54150476,30.5125643 C9.1632434,29.5355464 10.2290811,28.973021 11.3837386,28.973021 L26.3350727,28.973021 C27.4897302,28.973021 28.5555679,29.5355464 29.1773065,30.5125643 C29.8138485,31.4747789 29.9174716,32.6886496 29.443766,33.7396839 L27.282484,38.60997 C27.1492543,38.9356426 26.8827949,39.1872988 26.5571222,39.3057252 C26.2166463,39.4389549 25.8613671,39.4241516 25.5356945,39.2761186 C21.287147,37.3516894 16.4316643,37.3516894 12.1831168,39.2761186 C12.0054772,39.3649384 11.8278376,39.394545 11.6353947,39.394545" id="Fill-9"></path>
            <path d="M11.3822582,31.6065283 C10.8493394,31.6065283 10.3312239,31.2808556 10.1387809,30.7331335 L7.74064616,24.1456645 C7.35576033,23.0798268 7.51859665,21.8807594 8.1699419,20.9481514 C8.82128715,20.0155435 9.88712483,19.453018 11.026979,19.453018 L13.484327,19.453018 C17.170349,19.453018 20.1754191,22.4580882 20.1754191,26.1589134 C20.1754191,26.8842752 19.5832871,27.4764072 18.8579253,27.4764072 C18.1325636,27.4764072 17.5404315,26.8842752 17.5404315,26.1589134 C17.5404315,23.9088117 15.7196255,22.0880056 13.484327,22.0880056 L11.026979,22.0880056 C10.6272899,22.0880056 10.4052404,22.354465 10.3312239,22.4580882 C10.2572074,22.5617113 10.094371,22.8725806 10.2276008,23.2426631 L12.6257355,29.8301321 C12.8773917,30.511084 12.5221124,31.2808556 11.8411606,31.5325118 C11.6931276,31.5769217 11.5302913,31.6065283 11.3822582,31.6065283" id="Fill-11"></path>
            <path d="M26.3350727,31.6065283 C26.1870397,31.6065283 26.0390067,31.5769217 25.8761704,31.5325118 C25.1952185,31.2808556 24.8399393,30.511084 25.0915954,29.8301321 L27.4897302,23.2426631 C27.6377632,22.8725806 27.4601236,22.5617113 27.3861071,22.4580882 C27.3120906,22.354465 27.0900411,22.0880056 26.6903519,22.0880056 L24.233004,22.0880056 C21.9977055,22.0880056 20.1768994,23.9088117 20.1768994,26.1589134 C20.1768994,26.8842752 19.5847674,27.4764072 18.8594056,27.4764072 C18.1340439,27.4764072 17.5419118,26.8842752 17.5419118,26.1589134 C17.5419118,22.4580882 20.546982,19.453018 24.233004,19.453018 L26.6903519,19.453018 C27.8302061,19.453018 28.8960438,20.0155435 29.5473891,20.9481514 C30.2135376,21.8807594 30.3615706,23.0798268 29.9766848,24.1456645 L27.57855,30.7331335 C27.3861071,31.2808556 26.8679916,31.6065283 26.3350727,31.6065283" id="Fill-13"></path>
            <path d="M78.6825062,72.9062581 L18.8623663,72.9062581 C18.1370046,72.9062581 17.5448725,72.3141261 17.5448725,71.5887643 C17.5448725,70.8634025 18.1370046,70.2712705 18.8623663,70.2712705 L78.6825062,70.2712705 C79.407868,70.2712705 80,70.8634025 80,71.5887643 C80,72.3141261 79.407868,72.9062581 78.6825062,72.9062581" id="Fill-15"></path>
            <path d="M74.8662152,72.9062581 L63.0827875,72.9062581 C62.3574257,72.9062581 61.7652937,72.3141261 61.7652937,71.5887643 L61.7652937,42.5594908 C61.7652937,41.834129 62.3574257,41.241997 63.0827875,41.241997 C63.8081492,41.241997 64.4002813,41.834129 64.4002813,42.5594908 L64.4002813,70.2712705 L73.5487214,70.2712705 L73.5487214,2.6349876 L64.4002813,2.6349876 L64.4002813,30.8056697 C64.4002813,31.5310314 63.8081492,32.1231635 63.0827875,32.1231635 C62.3574257,32.1231635 61.7652937,31.5310314 61.7652937,30.8056697 L61.7652937,1.3174938 C61.7652937,0.592132045 62.3574257,0 63.0827875,0 L74.8662152,0 C75.5915769,0 76.183709,0.592132045 76.183709,1.3174938 L76.183709,71.5887643 C76.183709,72.3141261 75.5915769,72.9062581 74.8662152,72.9062581" id="Fill-17"></path>
            <path d="M45.1663521,70.0788276 L54.3147922,70.0788276 L54.3147922,16.1800081 L45.1663521,16.1800081 L45.1663521,70.0788276 Z M55.632286,72.7138152 L43.8488583,72.7138152 C43.1234965,72.7138152 42.5313645,72.1216831 42.5313645,71.3963214 L42.5313645,14.8625143 C42.5313645,14.1223493 43.1234965,13.5450205 43.8488583,13.5450205 L55.632286,13.5450205 C56.3576478,13.5450205 56.9497798,14.1223493 56.9497798,14.8625143 L56.9497798,71.3963214 C56.9497798,72.1216831 56.3576478,72.7138152 55.632286,72.7138152 L55.632286,72.7138152 Z" id="Fill-19"></path>
            <path d="M36.3968765,37.8298361 C35.6715147,37.8298361 35.0793827,37.237704 35.0793827,36.5123423 L35.0793827,5.8991155 L25.9309426,5.8991155 L25.9309426,14.3962104 C25.9309426,15.1363754 25.3388106,15.7285075 24.6134488,15.7285075 C23.888087,15.7285075 23.295955,15.1363754 23.295955,14.3962104 L23.295955,4.5668184 C23.295955,3.84145664 23.888087,3.2493246 24.6134488,3.2493246 L36.3968765,3.2493246 C37.1222383,3.2493246 37.7143703,3.84145664 37.7143703,4.5668184 L37.7143703,36.5123423 C37.7143703,37.237704 37.1222383,37.8298361 36.3968765,37.8298361" id="Fill-21"></path>
        </g>
    </g>
</svg>