<?xml version="1.0" encoding="UTF-8"?>
<svg width="88px" height="88px" viewBox="0 0 88 88" version="1.1" xmlns="http://www.w3.org/2000/svg" xmlns:xlink="http://www.w3.org/1999/xlink">
    <title>支持</title>
    <g id="支持" stroke="none" stroke-width="1" fill="none" fill-rule="evenodd" stroke-linecap="round" stroke-linejoin="round">
        <g transform="translate(4, 16)" stroke="#FFFFFF" stroke-width="3">
            <path d="M68.2926829,34.1463415 C66.5483438,36.2447664 64.2357601,37.9527481 61.4634146,39.0243902" id="Stroke-1"></path>
            <path d="M36.097561,10.7317073 L35.198973,10.0883426 C32.4959771,8.15056655 29.4313764,7.06932975 26.3414634,6.82926829" id="Stroke-3"></path>
            <path d="M59.3414462,40 C60.2999045,39.9107404 61.2148756,39.3861127 61.7941253,38.4862305 L61.8724023,38.3641817 C62.8952216,36.7775472 62.4951392,34.622566 60.9800446,33.5532727 L53.6585366,26.3414634" id="Stroke-5"></path>
            <path d="M9.75609756,33.1707317 C10.7096517,34.9687305 12.0160959,36.6277535 13.6585366,38.0487805" id="Stroke-7"></path>
            <path d="M43.1277272,29.2682927 L58.9451624,39.5614751 C60.5471375,40.6028571 60.970162,42.7015877 59.8886908,44.2468069 L59.8059252,44.3656699 C58.7262933,45.9108891 56.5504763,46.3189263 54.9485012,45.2757703 L39.0243902,34.9133989" id="Stroke-9"></path>
            <path d="M39.5114409,35.1219512 L54.0790104,45.1213678 C55.6686312,46.2113692 56.0883933,48.4080841 55.0152624,50.0254456 L54.933135,50.1498581 C53.8600041,51.7672196 51.702792,52.194307 50.1131712,51.1024487 L37.0731707,42.1911766" id="Stroke-11"></path>
            <path d="M38.9723668,52.135301 L41.5623385,54.019705 C43.0855427,55.1288437 45.1526234,54.6949969 46.1809174,53.0520381 L46.2596134,52.9256566 C47.2879073,51.2826977 46.8856835,49.0512163 45.3624793,47.9439639 L37.0731707,41.9512195" id="Stroke-13"></path>
            <path d="M56.4808748,5.00904143 C53.4991849,4.65421033 50.3865117,5.01262559 47.4357484,6.17747515 L44.5704881,7.30827527 L27.3170732,14.1199571 C28.7706243,17.689773 32.8856838,19.4245028 36.5095558,17.994426 L42.150935,15.8063009 L45.381857,20.9441835 C48.1743488,25.3491069 54.0649601,26.6877879 58.5365854,23.9351588" id="Stroke-15"></path>
            <path d="M19.9531774,41.4761229 L24.6979073,34.8743763 C25.8303352,33.2997644 25.4880983,31.0931283 23.9345935,29.9453143 C22.3810886,28.7975003 20.2022399,29.1443871 19.0716037,30.7189991 L14.3250821,37.3207457 C13.1944459,38.8953576 13.5366829,41.1019937 15.0901877,42.2498076 C16.6436925,43.3976216 18.8207495,43.0507348 19.9531774,41.4761229 Z" id="Stroke-17"></path>
            <path d="M25.8145214,45.3578497 L32.5020242,35.9300261 C33.6357425,34.3329329 33.2931156,32.0947919 31.7378407,30.9305901 L31.7378407,30.9305901 C30.1825658,29.7663884 28.0030282,30.1182279 26.8693099,31.7153211 L20.1800133,41.1431446 C19.0480888,42.7402378 19.3889219,44.9783788 20.9459907,46.1425806 C22.5012656,47.3067823 24.6808031,46.9549429 25.8145214,45.3578497 Z" id="Stroke-19"></path>
            <path d="M30.684704,49.2810009 L35.4295923,42.6792543 C36.5620581,41.1046424 36.2198097,38.8980063 34.666253,37.7501924 C33.1126963,36.6023784 30.9337748,36.9492652 29.8031009,38.5238771 L25.0582126,45.1256237 C23.9257468,46.7002356 24.2679952,48.9068717 25.8215519,50.0546857 C27.3751086,51.2024997 29.5522382,50.8556129 30.684704,49.2810009 Z" id="Stroke-21"></path>
            <path d="M36.5051714,54.1967242 L39.3370423,50.3403127 C40.4615926,48.8048241 40.1211978,46.6554939 38.5760549,45.5374883 C37.030912,44.4194828 34.8655734,44.757361 33.7392409,46.2910807 L30.90737,50.1492611 C29.7828196,51.6829808 30.1214323,53.832311 31.6683573,54.9503166 C33.2135002,56.0683221 35.3788389,55.7304438 36.5051714,54.1967242 Z" id="Stroke-23"></path>
            <polyline id="Stroke-25" points="18.3817194 0 27.3170732 6.26605488 9.26071022 33.1707317 0 25.8698816"></polyline>
            <polyline id="Stroke-27" points="67.0795421 0.975609756 56.5853659 4.86124705 68.6594894 34.1463415 80 29.718188"></polyline>
        </g>
    </g>
</svg>