<?xml version="1.0" encoding="UTF-8"?>
<svg width="88px" height="88px" viewBox="0 0 88 88" version="1.1" xmlns="http://www.w3.org/2000/svg" xmlns:xlink="http://www.w3.org/1999/xlink">
    <title>简单</title>
    <g id="简单" stroke="none" stroke-width="1" fill="none" fill-rule="evenodd" stroke-linecap="round" stroke-linejoin="round">
        <g id="简单流程" transform="translate(17, 7)" stroke="#FFFFFF">
            <path d="M15,68 L3.403125,68 C1.5225,68 0,66.4990303 0,64.645 L0,10.355 C0,8.5009697 1.5225,7 3.403125,7 L13.125,7" id="Stroke-1" stroke-width="3"></path>
            <path d="M37,7 L46.6292857,7 C48.492,7 50,8.48866667 50,10.3275 L50,29" id="Stroke-3" stroke-width="3"></path>
            <path d="M35,9 L13,9 L13,3.483 C13,1.5588 14.5876667,0 16.5475,0 L31.4525,0 C33.4123333,0 35,1.5588 35,3.483 L35,9 Z" id="Stroke-5" stroke-width="3"></path>
            <line x1="11" y1="37" x2="41" y2="37" id="Stroke-7" stroke-width="3"></line>
            <line x1="12" y1="22" x2="43" y2="22" id="Stroke-9" stroke-width="3"></line>
            <line x1="11" y1="44" x2="33" y2="44" id="Stroke-11" stroke-width="3"></line>
            <line x1="11" y1="30" x2="37" y2="30" id="Stroke-13" stroke-width="3"></line>
            <path d="M25.9712336,71.5286148 L23.7228008,72 C22.980182,71.2573812 22.7426188,71.019818 22,70.2790698 L22.4713852,68.0287664 C23.1242164,64.9198686 24.6674419,62.0691102 26.914004,59.822548 L50.2307381,36.5039434 C52.2378665,34.4986855 55.4907988,34.4986855 57.4960566,36.5039434 C58.4986855,37.5084429 59,38.8215875 59,40.1366026 C59,41.4516178 58.4986855,42.766633 57.4960566,43.7692619 L34.177452,67.085996 C31.9308898,69.3325581 29.0801314,70.8757836 25.9712336,71.5286148 Z" id="Stroke-15" stroke-width="3"></path>
            <line x1="49" y1="38" x2="56" y2="45" id="Stroke-17" stroke-width="3"></line>
            <line x1="37" y1="51" x2="44" y2="58" id="Stroke-19" stroke-width="3"></line>
            <path d="M52.3592929,49.6542418 L55.4209269,46.7460971 C56.4682274,45.751301 58.1672241,45.751301 59.2145246,46.7460971 C60.2618251,47.7408931 60.2618251,49.3528985 59.2145246,50.3495099 L48,61" id="Stroke-21" stroke-width="3"></path>
            <line x1="23" y1="71" x2="20" y2="74" id="Stroke-23" stroke-width="1.5"></line>
        </g>
    </g>
</svg>