<?xml version="1.0" encoding="UTF-8"?>
<svg width="88px" height="88px" viewBox="0 0 88 88" version="1.1" xmlns="http://www.w3.org/2000/svg" xmlns:xlink="http://www.w3.org/1999/xlink">
    <title>少投入</title>
    <g id="少投入" stroke="none" stroke-width="1" fill="none" fill-rule="evenodd">
        <g transform="translate(4, 15)" fill="#FFFFFF" id="编组">
            <path d="M43.1561024,52.5995647 C37.8949187,52.5995647 33.6953388,47.1510391 33.5704443,40.2193906 C33.5548324,39.4544113 34.1636935,38.8299385 34.9286727,38.8143267 C35.6468164,38.7987149 36.3025129,39.4075759 36.3181248,40.1725551 C36.4117957,45.5117979 39.4717126,49.8518842 43.1561024,49.8518842 C46.9341631,49.8518842 49.99408,45.4025152 49.99408,39.922766 C49.99408,39.0172804 49.9160209,38.1274066 49.7442908,37.2531446 C49.6037845,36.519389 50.0877509,35.8012452 50.8371183,35.645127 C51.5708739,35.5046206 52.2890177,35.9885871 52.4295241,36.7379545 C52.6324777,37.7683347 52.7417605,38.8455503 52.7417605,39.922766 C52.7417605,46.9168618 48.4485097,52.5995647 43.1561024,52.5995647" id="Fill-1"></path>
            <path d="M32.0685871,52.5995647 L20.2036031,52.5995647 C19.4386239,52.5995647 18.8297628,51.9907036 18.8297628,51.2257244 C18.8297628,49.4147532 17.3466398,47.9160183 15.5200568,47.9160183 C14.7706894,47.9160183 14.1618283,47.3071573 14.1618283,46.5577899 L14.1618283,40.1881669 C14.1618283,39.4387995 14.7706894,38.8143267 15.5200568,38.8143267 C16.285036,38.8143267 16.893897,39.4387995 16.893897,40.1881669 L16.893897,45.3400679 C19.1263874,45.855258 20.8905232,47.6193937 21.4213251,49.8518842 L32.0685871,49.8518842 C32.8335663,49.8518842 33.4424273,50.476357 33.4424273,51.2257244 C33.4424273,51.9907036 32.8335663,52.5995647 32.0685871,52.5995647" id="Fill-3"></path>
            <path d="M66.111724,52.5995647 L54.24674,52.5995647 C53.4817608,52.5995647 52.8728998,51.9907036 52.8728998,51.2257244 C52.8728998,50.476357 53.4817608,49.8518842 54.24674,49.8518842 L64.894002,49.8518842 C65.4248039,47.6193937 67.1889397,45.855258 69.4214301,45.3400679 L69.4214301,34.5054641 C67.1889397,33.990274 65.4248039,32.2261382 64.894002,29.9936478 L54.24674,29.9936478 C53.4817608,29.9936478 52.8728998,29.369175 52.8728998,28.6198075 C52.8728998,27.8548283 53.4817608,27.2459673 54.24674,27.2459673 L66.111724,27.2459673 C66.8767032,27.2459673 67.4855643,27.8548283 67.4855643,28.6198075 C67.4855643,30.4463906 68.9686873,31.9295136 70.7952703,31.9295136 C71.5446377,31.9295136 72.1534987,32.5383746 72.1534987,33.3033539 L72.1534987,46.5577899 C72.1534987,47.3071573 71.5446377,47.9160183 70.7952703,47.9160183 C68.9686873,47.9160183 67.4855643,49.4147532 67.4855643,51.2257244 C67.4855643,51.9907036 66.8767032,52.5995647 66.111724,52.5995647" id="Fill-5"></path>
            <path d="M41.0625572,43.2761851 C40.4068607,43.2761851 39.7511642,43.1825142 39.0954677,42.9795605 L17.8946148,34.9706963 C17.176471,34.7052954 16.8173991,33.9247043 17.0828001,33.2065606 C17.3638128,32.5040286 18.1444039,32.1449567 18.8625477,32.4103577 L39.9853415,40.3879982 C41.9368191,40.9968593 44.1068623,39.8571963 44.7469469,37.8276596 C45.3870316,35.7981229 44.2473687,33.6280797 42.2178319,32.9879951 L25.200947,26.3061357 C25.0604406,26.2436884 24.9199342,26.1656293 24.7950397,26.0563465 L21.7663464,23.3555015 C21.2043208,22.8559232 21.1574853,21.9816612 21.6570636,21.4196357 C22.1566419,20.8576101 23.0309039,20.8107747 23.5929294,21.3103529 L26.4342809,23.8394679 L43.1233175,30.4120446 C46.5110827,31.4580366 48.4469485,35.17365 47.3697329,38.6550861 C46.4798591,41.4652139 43.872685,43.2761851 41.0625572,43.2761851" id="Fill-7"></path>
            <path d="M35.6093481,24.9697638 C34.8599807,24.9697638 34.2511196,24.3765146 34.2355078,23.6271472 C34.219896,23.0026743 33.6890941,8.43684532 17.3903529,6.03262488 C17.2498465,6.01701306 17.1093402,5.97017759 16.9844456,5.90773031 L10.4118689,2.59802425 C9.74056063,2.25456419 9.47515967,1.4427495 9.80300791,0.75582937 C10.146468,0.0845210655 10.9738945,-0.196491713 11.6452028,0.14696835 L18.0148258,3.36300348 C36.4211628,6.20435491 36.9831883,23.3929699 36.9831883,23.5803117 C36.9988002,24.3296791 36.3899391,24.954152 35.6405717,24.9697638 L35.6093481,24.9697638 Z" id="Fill-9"></path>
            <path d="M78.6261597,57.6203263 L9.1067207,57.6203263 C8.35735329,57.6203263 7.74849227,57.0114653 7.74849227,56.2620979 L7.60798588,38.8549174 C7.60798588,38.0899382 8.2168469,37.4810772 8.98182613,37.4654653 C9.73119354,37.4186299 10.3556664,38.0743264 10.3556664,38.8393056 L10.4805609,54.8726458 L77.2523195,54.8726458 L77.2523195,24.9760085 L24.5624235,24.9760085 C23.7974443,24.9760085 23.1885833,24.3515357 23.1885833,23.6021683 C23.1885833,22.837189 23.7974443,22.228328 24.5624235,22.228328 L78.6261597,22.228328 C79.3755272,22.228328 80,22.837189 80,23.6021683 L80,56.246486 C80,57.0114653 79.3755272,57.6203263 78.6261597,57.6203263" id="Fill-11"></path>
            <path d="M16.3396774,35.2314138 C13.7949506,35.2314138 9.78271255,34.5601054 7.5970576,30.7664329 L0.743468169,27.1757141 C0.0721598646,26.832254 -0.193241093,26.0048275 0.15021897,25.3335192 C0.509290853,24.6622109 1.33671737,24.39681 2.00802567,24.7558818 L9.23629881,28.5339425 C9.48608795,28.6588371 9.68904162,28.8617908 9.81393619,29.1271917 C12.0308148,33.4516662 17.8696358,32.3900623 18.119425,32.3432269 C18.8531806,32.2183323 19.5713243,32.7022987 19.7118307,33.4360543 C19.8523371,34.1854217 19.3839825,34.9035655 18.6346151,35.0440719 C18.5253323,35.0596837 17.6198467,35.2314138 16.3396774,35.2314138" id="Fill-13"></path>
        </g>
    </g>
</svg>