<?xml version="1.0" encoding="UTF-8"?>
<svg width="202px" height="18px" viewBox="0 0 202 18" version="1.1" xmlns="http://www.w3.org/2000/svg" xmlns:xlink="http://www.w3.org/1999/xlink">
    <title>Fill 1备份 7</title>
    <g id="z" stroke="none" stroke-width="1" fill="none" fill-rule="evenodd">
        <g id="home" transform="translate(-625, -1599)" fill="#FFFFFF">
            <g id="what-is-Procolored?" transform="translate(360, 1529)">
                <path d="M458.382677,70.2753489 C458.011593,69.907099 457.412598,69.9083364 457.042911,70.2781828 C456.673384,70.6479894 456.672625,71.2470242 457.041035,71.6179484 L463.48453,78.0631999 L265.653278,78.0631999 C265.292492,78.0631999 265,78.3556924 265,78.7164783 L265,79.2994276 C265,79.6602135 265.292492,79.9527459 265.653278,79.9527459 L463.469044,79.9527459 L457.041035,86.3829897 C456.673065,86.7539138 456.674342,87.3524696 457.043669,87.7219968 C457.413037,88.091524 458.011593,88.0927613 458.382677,87.7249505 L466.433843,79.6713097 C466.804607,79.3003855 466.804447,78.6994748 466.433843,78.3290296 L458.382677,70.2753489 Z" id="Fill-1备份-7"></path>
            </g>
        </g>
    </g>
</svg>