<?xml version="1.0" encoding="UTF-8"?>
<svg width="87px" height="12px" viewBox="0 0 87 12" version="1.1" xmlns="http://www.w3.org/2000/svg" xmlns:xlink="http://www.w3.org/1999/xlink">
    <title>Fill 1备份 8</title>
    <g id="z" stroke="none" stroke-width="1" fill="none" fill-rule="evenodd">
        <g id="home-手机端" transform="translate(-128, -1276)" fill="#FFFFFF">
            <g id="-what-is-procolored" transform="translate(24, 1260)">
                <path d="M184.588451,16.1835585 C184.341062,15.9380586 183.941732,15.9388835 183.695274,16.1854478 C183.448923,16.4319855 183.448417,16.831342 183.694023,17.0786248 L187.989687,21.3754592 L104.435519,21.3754592 C104.194995,21.3754592 104,21.5704541 104,21.8109781 L104,22.1996109 C104,22.4401349 104.194995,22.6351565 104.435519,22.6351565 L187.979362,22.6351565 L183.694023,26.9219857 C183.44871,27.1692684 183.449561,27.5683056 183.69578,27.8146571 C183.942025,28.0610085 184.341062,28.0618334 184.588451,27.8166262 L189.955895,22.4475324 C190.203071,22.2002496 190.202965,21.7996424 189.955895,21.5526789 L184.588451,16.1835585 Z" id="Fill-1备份-8"></path>
            </g>
        </g>
    </g>
</svg>