<?xml version="1.0" encoding="UTF-8"?>
<svg width="375px" height="744px" viewBox="0 0 375 744" version="1.1" xmlns="http://www.w3.org/2000/svg" xmlns:xlink="http://www.w3.org/1999/xlink">
    <title>编组备份</title>
    <defs>
        <rect id="path-1" x="0" y="0" width="375" height="744"></rect>
    </defs>
    <g id="z" stroke="none" stroke-width="1" fill="none" fill-rule="evenodd">
        <g id="落地页-手机端" transform="translate(0, -1429)">
            <g id="编组备份" transform="translate(0, 1429)">
                <mask id="mask-2" fill="white">
                    <use xlink:href="#path-1"></use>
                </mask>
                <use id="蒙版" fill="#F2E9DA" xlink:href="#path-1"></use>
                <g mask="url(#mask-2)" fill="#E7DFD0">
                    <g transform="translate(-635, -47)">
                        <polygon id="Fill-1" points="635 762 636 762 636 4 635 4"></polygon>
                        <polygon id="Fill-12" points="697 789.963109 698 789.963109 698 4 697 4"></polygon>
                        <polygon id="Fill-13" points="760 789.963109 761 789.963109 761 4 760 4"></polygon>
                        <polygon id="Fill-14" points="822 789.963109 823 789.963109 823 4 822 4"></polygon>
                        <polygon id="Fill-15" points="885 791 886 791 886 5.03689065 885 5.03689065"></polygon>
                        <polygon id="Fill-16" points="947 789.963109 948 789.963109 948 4 947 4"></polygon>
                        <polygon id="Fill-17" points="1009 762 1010 762 1010 4 1009 4"></polygon>
                        <polygon id="Fill-28" points="507 102 1264 102 1264 101 507 101"></polygon>
                        <polygon id="Fill-29" points="507 161 1264 161 1264 160 507 160"></polygon>
                        <polygon id="Fill-30" points="507 220 1264 220 1264 219 507 219"></polygon>
                        <polygon id="Fill-31" points="9 279 1598 279 1598 278 9 278"></polygon>
                        <polygon id="Fill-32" points="9 338 1598 338 1598 337 9 337"></polygon>
                        <polygon id="Fill-33" points="9 397 1598 397 1598 396 9 396"></polygon>
                        <polygon id="Fill-34" points="9 456 1598 456 1598 455 9 455"></polygon>
                        <polygon id="Fill-35" points="9 515 1598 515 1598 514 9 514"></polygon>
                        <polygon id="Fill-36" points="9 574 1598 574 1598 573 9 573"></polygon>
                        <polygon id="Fill-37" points="506.884869 633 1263.87777 633 1628 632 3.00682813e-12 632"></polygon>
                        <polygon id="Fill-38" points="507 691 1264 691 1264 690 507 690"></polygon>
                        <polygon id="Fill-38备份" points="507 751 1264 751 1264 750 507 750"></polygon>
                    </g>
                </g>
            </g>
        </g>
    </g>
</svg>