<?xml version="1.0" encoding="UTF-8"?>
<svg width="1920px" height="492px" viewBox="0 0 1920 492" version="1.1" xmlns="http://www.w3.org/2000/svg" xmlns:xlink="http://www.w3.org/1999/xlink">
    <title>背景</title>
    <defs>
        <rect id="path-1" x="0" y="0" width="1920" height="492"></rect>
    </defs>
    <g id="z" stroke="none" stroke-width="1" fill="none" fill-rule="evenodd">
        <g id="落地页1" transform="translate(0, -2097)">
            <g id="背景" transform="translate(0, 2097)">
                <mask id="mask-2" fill="white">
                    <use xlink:href="#path-1"></use>
                </mask>
                <use id="蒙版" fill="#F2E9DA" xlink:href="#path-1"></use>
                <g id="编组" mask="url(#mask-2)" fill="#E7DFD0">
                    <g transform="translate(-16.9141, -348)">
                        <polygon id="Fill-1" points="777.302305 933.496665 778.726093 933.496665 778.726093 4.7812804 777.302305 4.7812804"></polygon>
                        <polygon id="Fill-2" points="703.346282 933.747098 704.766072 933.747098 704.766072 5.15693097 703.346282 5.15693097"></polygon>
                        <polygon id="Fill-3" points="630.191141 933.997532 631.605931 933.997532 631.605931 5.53258153 630.191141 5.53258153"></polygon>
                        <polygon id="Fill-4" points="557.826882 934.247966 559.237673 934.247966 559.237673 5.9082321 557.826882 5.9082321"></polygon>
                        <polygon id="Fill-5" points="486.246507 934.498399 487.652299 934.498399 487.652299 6.28288093 486.246507 6.28288093"></polygon>
                        <polygon id="Fill-6" points="415.441017 934.748833 416.841809 934.748833 416.841809 6.6585315 415.441017 6.6585315"></polygon>
                        <polygon id="Fill-7" points="345.399414 934.999267 346.796206 934.999267 346.796206 7.03418206 345.399414 7.03418206"></polygon>
                        <polygon id="Fill-8" points="276.116698 935.249701 277.509491 935.249701 277.509491 7.40983263 276.116698 7.40983263"></polygon>
                        <polygon id="Fill-9" points="207.58387 935.500134 208.972664 935.500134 208.972664 7.78548319 207.58387 7.78548319"></polygon>
                        <polygon id="Fill-10" points="139.791933 935.750568 141.175727 935.750568 141.175727 8.16013202 139.791933 8.16013202"></polygon>
                        <polygon id="Fill-11" points="72.7338864 936 74.1136816 936 74.1136816 8.53478085 72.7338864 8.53478085"></polygon>
                        <polygon id="Fill-12" points="853.845943 933.710034 855.269732 933.710034 855.269732 4.99364819 853.845943 4.99364819"></polygon>
                        <polygon id="Fill-13" points="930.388582 933.922402 931.81237 933.922402 931.81237 5.20601597 930.388582 5.20601597"></polygon>
                        <polygon id="Fill-14" points="1006.93222 934.13477 1008.35601 934.13477 1008.35601 5.41838376 1006.93222 5.41838376"></polygon>
                        <polygon id="Fill-15" points="1083.47586 934.347138 1084.89965 934.347138 1084.89965 5.63075155 1083.47586 5.63075155"></polygon>
                        <polygon id="Fill-16" points="1160.27846 933.752107 1161.69725 933.752107 1161.69725 5.16093791 1160.27846 5.16093791"></polygon>
                        <polygon id="Fill-17" points="1236.25118 933.158078 1237.66597 933.158078 1237.66597 4.692126 1236.25118 4.692126"></polygon>
                        <polygon id="Fill-18" points="1311.40103 932.563048 1312.81182 932.563048 1312.81182 4.22231236 1311.40103 4.22231236"></polygon>
                        <polygon id="Fill-19" points="1385.73899 931.968017 1387.14478 931.968017 1387.14478 3.75249872 1385.73899 3.75249872"></polygon>
                        <polygon id="Fill-20" points="1459.27208 931.373988 1460.67387 931.373988 1460.67387 3.28368681 1459.27208 3.28368681"></polygon>
                        <polygon id="Fill-21" points="1532.00928 930.77996 1533.40607 930.77996 1533.40607 2.81487491 1532.00928 2.81487491"></polygon>
                        <polygon id="Fill-22" points="1603.9596 930.185931 1605.35239 930.185931 1605.35239 2.34506127 1603.9596 2.34506127"></polygon>
                        <polygon id="Fill-23" points="1675.13204 929.5909 1676.52083 929.5909 1676.52083 1.87624936 1675.13204 1.87624936"></polygon>
                        <polygon id="Fill-24" points="1745.53359 928.996872 1746.91838 928.996872 1746.91838 1.40643572 1745.53359 1.40643572"></polygon>
                        <polygon id="Fill-25" points="1815.17425 928.402843 1816.55405 928.402843 1816.55405 0.937623812 1815.17425 0.937623812"></polygon>
                        <polygon id="Fill-26" points="1884.06102 927.808814 1885.43782 927.808814 1885.43782 0.469813641 1884.06102 0.469813641"></polygon>
                        <polygon id="Fill-32" points="10.9140625 413.99397 1957.91406 413.99397 1957.91406 412.5675 10.9140625 412.5675"></polygon>
                        <polygon id="Fill-33" points="10.9140625 486.207032 1957.91406 486.207032 1957.91406 484.779559 10.9140625 484.779559"></polygon>
                        <polygon id="Fill-34" points="10.9140625 558.419091 1957.91406 558.419091 1957.91406 556.992621 10.9140625 556.992621"></polygon>
                        <polygon id="Fill-35" points="10.9140625 630.630149 1957.91406 630.630149 1957.91406 629.203679 10.9140625 629.203679"></polygon>
                        <polygon id="Fill-36" points="10.9140625 702.84321 1957.91406 702.84321 1957.91406 701.41674 10.9140625 701.41674"></polygon>
                        <polygon id="Fill-37" points="620.823532 775.05527 1547.97491 775.05527 1993.94531 773.628799 3.68270937e-12 773.628799"></polygon>
                    </g>
                </g>
            </g>
        </g>
    </g>
</svg>