<?xml version="1.0" encoding="UTF-8"?>
<svg width="183px" height="220px" viewBox="0 0 183 220" version="1.1" xmlns="http://www.w3.org/2000/svg" xmlns:xlink="http://www.w3.org/1999/xlink">
    <title>防堵</title>
    <defs>
        <polygon id="path-1" points="0 0 179 0 179 214 0 214"></polygon>
    </defs>
    <g id="z" stroke="none" stroke-width="1" fill="none" fill-rule="evenodd">
        <g id="落地页1" transform="translate(-394, -2197)">
            <g id="防堵" transform="translate(395, 2198)">
                <g id="编组" transform="translate(3, 5)">
                    <mask id="mask-2" fill="white">
                        <use xlink:href="#path-1"></use>
                    </mask>
                    <g id="Clip-2"></g>
                    <path d="M175.15639,214.00023 L3.84361016,214.00023 C1.72116863,214.00023 0,212.285698 0,210.17144 L0,3.82878942 C0,1.7145319 1.72116863,0 3.84361016,0 L175.15639,0 C177.2796,0 179,1.7145319 179,3.82878942 L179,210.17144 C179,212.285698 177.2796,214.00023 175.15639,214.00023" id="Fill-1" fill="#000000" mask="url(#mask-2)"></path>
                </g>
                <path d="M175.15639,214 L3.84361016,214 C1.72116863,214 0,212.28623 0,210.171201 L0,3.82879901 C0,1.71377044 1.72116863,0 3.84361016,0 L175.15639,0 C177.2796,0 179,1.71377044 179,3.82879901 L179,210.171201 C179,212.28623 177.2796,214 175.15639,214" id="Fill-3" fill="#F2E9DA"></path>
                <path d="M175.15639,214 L3.84361016,214 C1.72116863,214 0,212.28623 0,210.171201 L0,3.82879901 C0,1.71377044 1.72116863,0 3.84361016,0 L175.15639,0 C177.2796,0 179,1.71377044 179,3.82879901 L179,210.171201 C179,212.28623 177.2796,214 175.15639,214 Z" id="Stroke-5" stroke="#000000" stroke-width="2"></path>
                <path d="M166.180845,182 L10.8191548,182 C8.71021753,182 7,180.294232 7,178.18908 L7,28.8109201 C7,26.7057678 8.71021753,25 10.8191548,25 L166.180845,25 C168.289782,25 170,26.7057678 170,28.8109201 L170,178.18908 C170,180.294232 168.289782,182 166.180845,182" id="Fill-7" fill="#F2E9DA"></path>
                <path d="M166.180845,182 L10.8191548,182 C8.71021753,182 7,180.294232 7,178.18908 L7,28.8109201 C7,26.7057678 8.71021753,25 10.8191548,25 L166.180845,25 C168.289782,25 170,26.7057678 170,28.8109201 L170,178.18908 C170,180.294232 168.289782,182 166.180845,182 Z" id="Stroke-9" stroke="#000000" stroke-width="2"></path>
                <path d="M152.967805,167 L26.0321949,167 C20.4907977,167 16,162.504432 16,156.96056 L16,49.0402038 C16,43.4948045 20.4907977,39 26.0321949,39 L152.967805,39 C158.509202,39 163,43.4948045 163,49.0402038 L163,156.96056 C163,162.504432 158.509202,167 152.967805,167" id="Fill-11" fill="#000000"></path>
                <path d="M21,34.5 C21,35.8804568 19.8804568,37 18.5,37 C17.1195432,37 16,35.8804568 16,34.5 C16,33.1195432 17.1195432,32 18.5,32 C19.8804568,32 21,33.1195432 21,34.5" id="Fill-13" fill="#F2E9DA"></path>
                <path d="M21,34.5 C21,35.8804568 19.8804568,37 18.5,37 C17.1195432,37 16,35.8804568 16,34.5 C16,33.1195432 17.1195432,32 18.5,32 C19.8804568,32 21,33.1195432 21,34.5 Z" id="Stroke-15" stroke="#000000" stroke-width="2"></path>
                <path d="M21,171.5 C21,172.880457 19.8804568,174 18.5,174 C17.1195432,174 16,172.880457 16,171.5 C16,170.119543 17.1195432,169 18.5,169 C19.8804568,169 21,170.119543 21,171.5" id="Fill-17" fill="#F2E9DA"></path>
                <path d="M21,171.5 C21,172.880457 19.8804568,174 18.5,174 C17.1195432,174 16,172.880457 16,171.5 C16,170.119543 17.1195432,169 18.5,169 C19.8804568,169 21,170.119543 21,171.5 Z" id="Stroke-19" stroke="#000000" stroke-width="2"></path>
                <path d="M129.838966,24 C129.838966,21.9256658 131.49674,20.2438786 133.541455,20.2438786 C135.587709,20.2438786 137.245482,21.9256658 137.245482,24 L143.11423,24 C147.469828,24 151,20.4186909 151,16 C151,11.5820896 147.469828,8 143.11423,8 L32.8857698,8 C28.5301724,8 25,11.5820896 25,16 C25,20.4186909 28.5301724,24 32.8857698,24 L38.7545179,24 C38.7545179,21.9256658 40.4122912,20.2438786 42.4577757,20.2438786 C44.502491,20.2438786 46.1610335,21.9256658 46.1610335,24 L129.838966,24 Z" id="Fill-21" fill="#F2E9DA"></path>
                <path d="M129.838966,24 C129.838966,21.9256658 131.49674,20.2438786 133.541455,20.2438786 C135.587709,20.2438786 137.245482,21.9256658 137.245482,24 L143.11423,24 C147.469828,24 151,20.4186909 151,16 C151,11.5820896 147.469828,8 143.11423,8 L32.8857698,8 C28.5301724,8 25,11.5820896 25,16 C25,20.4186909 28.5301724,24 32.8857698,24 L38.7545179,24 C38.7545179,21.9256658 40.4122912,20.2438786 42.4577757,20.2438786 C44.502491,20.2438786 46.1610335,21.9256658 46.1610335,24 L129.838966,24 Z" id="Stroke-23" stroke="#000000" stroke-width="2"></path>
                <path d="M68,16.4996364 C68,18.4330529 66.4332156,20 64.500727,20 C62.5667844,20 61,18.4330529 61,16.4996364 C61,14.5669471 62.5667844,13 64.500727,13 C66.4332156,13 68,14.5669471 68,16.4996364" id="Fill-25" fill="#F2E9DA"></path>
                <path d="M68,16.4996364 C68,18.4330529 66.4332156,20 64.500727,20 C62.5667844,20 61,18.4330529 61,16.4996364 C61,14.5669471 62.5667844,13 64.500727,13 C66.4332156,13 68,14.5669471 68,16.4996364 Z" id="Stroke-27" stroke="#000000" stroke-width="2"></path>
                <path d="M116,16.4996364 C116,18.4330529 114.433216,20 112.5,20 C110.566784,20 109,18.4330529 109,16.4996364 C109,14.5669471 110.566784,13 112.5,13 C114.433216,13 116,14.5669471 116,16.4996364" id="Fill-29" fill="#F2E9DA"></path>
                <path d="M116,16.4996364 C116,18.4330529 114.433216,20 112.5,20 C110.566784,20 109,18.4330529 109,16.4996364 C109,14.5669471 110.566784,13 112.5,13 C114.433216,13 116,14.5669471 116,16.4996364 Z" id="Stroke-31" stroke="#000000" stroke-width="2"></path>
                <path d="M32.9996347,11 C30.2426766,11 28,13.2428404 28,16 C28,18.7571596 30.2426766,21 32.9996347,21 C35.7565929,21 38,18.7571596 38,16 C38,13.2428404 35.7565929,11 32.9996347,11 Z" id="Stroke-35" stroke="#000000" stroke-width="2"></path>
                <path d="M34.9500359,15.1737008 L33.8261307,15.1737008 L33.8261307,14.0505312 C33.8261307,14.0223945 33.803733,14 33.7761665,14 L32.2238335,14 C32.196267,14 32.1738693,14.0223945 32.1738693,14.0505312 L32.1738693,15.1737008 L31.0499641,15.1737008 C31.0223977,15.1737008 31,15.1960953 31,15.224232 L31,16.775768 C31,16.8039047 31.0223977,16.8262992 31.0499641,16.8262992 L32.1738693,16.8262992 L32.1738693,17.9494688 C32.1738693,17.9776055 32.196267,18 32.2238335,18 L33.7761665,18 C33.803733,18 33.8261307,17.9776055 33.8261307,17.9494688 L33.8261307,16.8262992 L34.9500359,16.8262992 C34.9776023,16.8262992 35,16.8039047 35,16.775768 L35,15.224232 C35,15.1960953 34.9776023,15.1737008 34.9500359,15.1737008 Z" id="Stroke-39" stroke="#000000" stroke-width="0.75"></path>
                <path d="M142.999635,11 C140.242677,11 138,13.2428404 138,16 C138,18.7571596 140.242677,21 142.999635,21 C145.756593,21 148,18.7571596 148,16 C148,13.2428404 145.756593,11 142.999635,11 Z" id="Stroke-35备份" stroke="#000000" stroke-width="2"></path>
                <path d="M144.950036,15.1737008 L143.826131,15.1737008 L143.826131,14.0505312 C143.826131,14.0223945 143.803733,14 143.776167,14 L142.223833,14 C142.196267,14 142.173869,14.0223945 142.173869,14.0505312 L142.173869,15.1737008 L141.049964,15.1737008 C141.022398,15.1737008 141,15.1960953 141,15.224232 L141,16.775768 C141,16.8039047 141.022398,16.8262992 141.049964,16.8262992 L142.173869,16.8262992 L142.173869,17.9494688 C142.173869,17.9776055 142.196267,18 142.223833,18 L143.776167,18 C143.803733,18 143.826131,17.9776055 143.826131,17.9494688 L143.826131,16.8262992 L144.950036,16.8262992 C144.977602,16.8262992 145,16.8039047 145,16.775768 L145,15.224232 C145,15.1960953 144.977602,15.1737008 144.950036,15.1737008 Z" id="Stroke-39备份" stroke="#000000" stroke-width="0.75"></path>
                <path d="M164.000382,5 C159.588699,5 156,8.58869927 156,13.0003824 C156,17.4120656 159.588699,21 164.000382,21 C168.411301,21 172,17.4120656 172,13.0003824 C172,8.58869927 168.411301,5 164.000382,5" id="Fill-45" fill="#F2E9DA"></path>
                <path d="M164.000382,5 C159.588699,5 156,8.58869927 156,13.0003824 C156,17.4120656 159.588699,21 164.000382,21 C168.411301,21 172,17.4120656 172,13.0003824 C172,8.58869927 168.411301,5 164.000382,5 Z" id="Stroke-47" stroke="#000000" stroke-width="2"></path>
                <path d="M164.000385,8 C161.243279,8 159,10.2432786 159,13.0003852 C159,15.7574917 161.243279,18 164.000385,18 C166.756721,18 169,15.7574917 169,13.0003852 C169,10.2432786 166.756721,8 164.000385,8" id="Fill-49" fill="#F2E9DA"></path>
                <path d="M164.000385,8 C161.243279,8 159,10.2432786 159,13.0003852 C159,15.7574917 161.243279,18 164.000385,18 C166.756721,18 169,15.7574917 169,13.0003852 C169,10.2432786 166.756721,8 164.000385,8 Z" id="Stroke-51" stroke="#000000"></path>
                <path d="M164.000382,193 C159.588699,193 156,196.587934 156,200.999618 C156,205.411301 159.588699,209 164.000382,209 C168.411301,209 172,205.411301 172,200.999618 C172,196.587934 168.411301,193 164.000382,193 Z" id="Stroke-55" stroke="#000000" stroke-width="2"></path>
                <path d="M164.000385,196 C161.243279,196 159,198.242508 159,200.999615 C159,203.756721 161.243279,206 164.000385,206 C166.756721,206 169,203.756721 169,200.999615 C169,198.242508 166.756721,196 164.000385,196 Z" id="Stroke-59" stroke="#000000"></path>
                <path d="M46.1610335,182 C46.1610335,184.075115 44.5032602,185.756902 42.458545,185.756902 C40.4122912,185.756902 38.7545179,184.075115 38.7545179,182 L32.8857698,182 C28.5301724,182 25,185.58209 25,190 C25,194.418691 28.5301724,198 32.8857698,198 L143.11423,198 C147.469828,198 151,194.418691 151,190 C151,185.58209 147.469828,182 143.11423,182 L137.245482,182 C137.245482,184.075115 135.587709,185.756902 133.542224,185.756902 C131.497509,185.756902 129.838966,184.075115 129.838966,182 L46.1610335,182 Z" id="Fill-65" fill="#F2E9DA"></path>
                <path d="M46.1610335,182 C46.1610335,184.075115 44.5032602,185.756902 42.458545,185.756902 C40.4122912,185.756902 38.7545179,184.075115 38.7545179,182 L32.8857698,182 C28.5301724,182 25,185.58209 25,190 C25,194.418691 28.5301724,198 32.8857698,198 L143.11423,198 C147.469828,198 151,194.418691 151,190 C151,185.58209 147.469828,182 143.11423,182 L137.245482,182 C137.245482,184.075115 135.587709,185.756902 133.542224,185.756902 C131.497509,185.756902 129.838966,184.075115 129.838966,182 L46.1610335,182 Z" id="Stroke-67" stroke="#000000" stroke-width="2"></path>
                <path d="M109,190.499636 C109,188.566947 110.566784,187 112.5,187 C114.433216,187 116,188.566947 116,190.499636 C116,192.433053 114.433216,194 112.5,194 C110.566784,194 109,192.433053 109,190.499636" id="Fill-69" fill="#F2E9DA"></path>
                <path d="M109,190.499636 C109,188.566947 110.566784,187 112.5,187 C114.433216,187 116,188.566947 116,190.499636 C116,192.433053 114.433216,194 112.5,194 C110.566784,194 109,192.433053 109,190.499636 Z" id="Stroke-71" stroke="#000000" stroke-width="2"></path>
                <path d="M61,190.499636 C61,188.566947 62.5667844,187 64.5,187 C66.4332156,187 68,188.566947 68,190.499636 C68,192.433053 66.4332156,194 64.5,194 C62.5667844,194 61,192.433053 61,190.499636" id="Fill-73" fill="#F2E9DA"></path>
                <path d="M61,190.499636 C61,188.566947 62.5667844,187 64.5,187 C66.4332156,187 68,188.566947 68,190.499636 C68,192.433053 66.4332156,194 64.5,194 C62.5667844,194 61,192.433053 61,190.499636 Z" id="Stroke-75" stroke="#000000" stroke-width="2"></path>
                <path d="M152.982372,166 L28.0183896,166 C22.4858006,166 18,161.476249 18,155.897623 L18,49.1031458 C18,43.5237508 22.4858006,39 28.0183896,39 L152.982372,39 C158.515723,39 163,43.5237508 163,49.1031458 L163,155.897623 C163,161.476249 158.515723,166 152.982372,166" id="Fill-93" fill="#F2E9DA"></path>
                <path d="M152.982372,166 L28.0183896,166 C22.4858006,166 18,161.476249 18,155.897623 L18,49.1031458 C18,43.5237508 22.4858006,39 28.0183896,39 L152.982372,39 C158.515723,39 163,43.5237508 163,49.1031458 L163,155.897623 C163,161.476249 158.515723,166 152.982372,166 Z" id="Stroke-95" stroke="#000000" stroke-width="2"></path>
                <path d="M149.445317,159 L29.5546827,159 C27.0389796,159 25,156.946524 25,154.414643 L25,50.5853566 C25,48.0519471 27.0389796,46 29.5546827,46 L149.445317,46 C151.96102,46 154,48.0519471 154,50.5853566 L154,154.414643 C154,156.946524 151.96102,159 149.445317,159" id="Fill-97" fill="#F2E9DA"></path>
                <path d="M149.445317,159 L29.5546827,159 C27.0389796,159 25,156.946524 25,154.414643 L25,50.5853566 C25,48.0519471 27.0389796,46 29.5546827,46 L149.445317,46 C151.96102,46 154,48.0519471 154,50.5853566 L154,154.414643 C154,156.946524 151.96102,159 149.445317,159 Z" id="Stroke-99" stroke="#000000" stroke-width="2"></path>
                <path d="M32.9996347,185 C30.2426766,185 28,187.24284 28,190 C28,192.75716 30.2426766,195 32.9996347,195 C35.7565929,195 38,192.75716 38,190 C38,187.24284 35.7565929,185 32.9996347,185 Z" id="Stroke-35备份-2" stroke="#000000" stroke-width="2"></path>
                <path d="M34.9500359,189.173701 L33.8261307,189.173701 L33.8261307,188.050531 C33.8261307,188.022394 33.803733,188 33.7761665,188 L32.2238335,188 C32.196267,188 32.1738693,188.022394 32.1738693,188.050531 L32.1738693,189.173701 L31.0499641,189.173701 C31.0223977,189.173701 31,189.196095 31,189.224232 L31,190.775768 C31,190.803905 31.0223977,190.826299 31.0499641,190.826299 L32.1738693,190.826299 L32.1738693,191.949469 C32.1738693,191.977606 32.196267,192 32.2238335,192 L33.7761665,192 C33.803733,192 33.8261307,191.977606 33.8261307,191.949469 L33.8261307,190.826299 L34.9500359,190.826299 C34.9776023,190.826299 35,190.803905 35,190.775768 L35,189.224232 C35,189.196095 34.9776023,189.173701 34.9500359,189.173701 Z" id="Stroke-39备份-2" stroke="#000000" stroke-width="0.75"></path>
                <path d="M142.999635,185 C140.242677,185 138,187.24284 138,190 C138,192.75716 140.242677,195 142.999635,195 C145.756593,195 148,192.75716 148,190 C148,187.24284 145.756593,185 142.999635,185 Z" id="Stroke-35备份-3" stroke="#000000" stroke-width="2"></path>
                <path d="M144.950036,189.173701 L143.826131,189.173701 L143.826131,188.050531 C143.826131,188.022394 143.803733,188 143.776167,188 L142.223833,188 C142.196267,188 142.173869,188.022394 142.173869,188.050531 L142.173869,189.173701 L141.049964,189.173701 C141.022398,189.173701 141,189.196095 141,189.224232 L141,190.775768 C141,190.803905 141.022398,190.826299 141.049964,190.826299 L142.173869,190.826299 L142.173869,191.949469 C142.173869,191.977606 142.196267,192 142.223833,192 L143.776167,192 C143.803733,192 143.826131,191.977606 143.826131,191.949469 L143.826131,190.826299 L144.950036,190.826299 C144.977602,190.826299 145,190.803905 145,190.775768 L145,189.224232 C145,189.196095 144.977602,189.173701 144.950036,189.173701 Z" id="Stroke-39备份-3" stroke="#000000" stroke-width="0.75"></path>
                <g id="编组" transform="translate(103, 47)">
                    <path d="M47,23.5003829 C34.0217537,23.5003829 23.5003829,12.9793551 23.5003829,0 C23.5003829,12.9793551 12.9782463,23.5003829 0,23.5003829 C12.9782463,23.5003829 23.5003829,34.0206449 23.5003829,47 C23.5003829,34.0206449 34.0217537,23.5003829 47,23.5003829" id="Fill-101" fill="#000000"></path>
                    <path d="M47,23.5003829 C34.0217537,23.5003829 23.5003829,12.9793551 23.5003829,0 C23.5003829,12.9793551 12.9782463,23.5003829 0,23.5003829 C12.9782463,23.5003829 23.5003829,34.0206449 23.5003829,47 C23.5003829,34.0206449 34.0217537,23.5003829 47,23.5003829" id="Stroke-103" stroke="#F2E9DA" stroke-width="2"></path>
                </g>
                <g id="编组" transform="translate(34, 109)">
                    <path d="M47,23.5003829 C34.0211993,23.5003829 23.5,12.9793551 23.5,0 C23.5,12.9793551 12.9788007,23.5003829 0,23.5003829 C12.9788007,23.5003829 23.5,34.0206449 23.5,47 C23.5,34.0206449 34.0211993,23.5003829 47,23.5003829" id="Fill-104" fill="#000000"></path>
                    <path d="M47,23.5003829 C34.0211993,23.5003829 23.5,12.9793551 23.5,0 C23.5,12.9793551 12.9788007,23.5003829 0,23.5003829 C12.9788007,23.5003829 23.5,34.0206449 23.5,47 C23.5,34.0206449 34.0211993,23.5003829 47,23.5003829" id="Stroke-106" stroke="#F2E9DA" stroke-width="2"></path>
                </g>
            </g>
        </g>
    </g>
</svg>