<?xml version="1.0" encoding="UTF-8"?>
<svg width="216px" height="221px" viewBox="0 0 216 221" version="1.1" xmlns="http://www.w3.org/2000/svg" xmlns:xlink="http://www.w3.org/1999/xlink">
    <title>维修</title>
    <g id="z" stroke="none" stroke-width="1" fill="none" fill-rule="evenodd">
        <g id="落地页1" transform="translate(-852, -2197)">
            <g id="维修" transform="translate(853, 2198)">
                <g id="编组">
                    <path d="M37.4234564,0.833554662 C51.9599054,-1.96070872 67.5794381,2.27036982 78.8351625,13.5254219 C92.0928473,26.7838048 95.6048304,46.0966532 89.3697433,62.5632391 L151.437356,124.630233 C167.90324,118.395139 187.217437,121.907126 200.474437,135.164825 C211.730162,146.419877 215.959868,162.04011 213.166976,176.576575 C212.849508,178.229596 211.724688,179.482362 210.115457,179.976353 C208.50691,180.470344 206.871679,180.06393 205.681861,178.873426 L177.592154,150.78369 C172.572885,153.708635 167.407882,157.682455 162.545978,162.545048 C157.684074,167.406957 153.710258,172.571965 150.785316,177.59124 L178.875023,205.680292 C180.064842,206.87148 180.471255,208.506028 179.977949,210.114577 C179.484643,211.723126 178.23051,212.849315 176.578858,213.166783 C162.041725,215.960362 146.422192,211.729284 135.165784,200.473547 C121.908099,187.215849 118.397484,167.903 124.631887,151.436414 L62.5622217,89.3694206 C46.0963373,95.6045142 26.7835093,92.0932116 13.5258245,78.8355129 C2.27010007,67.5804608 -1.96028983,51.9602274 0.833286421,37.4237632 C1.15075382,35.7707416 2.27625784,34.5172914 3.88480493,34.0239848 C5.49403621,33.5299941 7.12926698,33.9364075 8.31908552,35.1269115 L36.4094765,63.2166479 C41.4280613,60.2910185 46.5930643,56.3178825 51.4556522,51.4552895 C56.3168717,46.5940649 60.2906877,41.4283723 63.216314,36.4097822 L35.1266072,8.31936164 C33.9354203,7.12954185 33.5303756,5.49430936 34.0236817,3.88576058 C34.5169877,2.2765276 35.7711207,1.15170659 37.4234564,0.833554662" id="Fill-1" fill="#F2E9DA"></path>
                    <path d="M37.4234564,0.833554662 C51.9599054,-1.96070872 67.5794381,2.27036982 78.8351625,13.5254219 C92.0928473,26.7838048 95.6048304,46.0966532 89.3697433,62.5632391 L151.437356,124.630233 C167.90324,118.395139 187.217437,121.907126 200.474437,135.164825 C211.730162,146.419877 215.959868,162.04011 213.166976,176.576575 C212.849508,178.229596 211.724688,179.482362 210.115457,179.976353 C208.50691,180.470344 206.871679,180.06393 205.681861,178.873426 L177.592154,150.78369 C172.572885,153.708635 167.407882,157.682455 162.545978,162.545048 C157.684074,167.406957 153.710258,172.571965 150.785316,177.59124 L178.875023,205.680292 C180.064842,206.87148 180.471255,208.506028 179.977949,210.114577 C179.484643,211.723126 178.23051,212.849315 176.578858,213.166783 C162.041725,215.960362 146.422192,211.729284 135.165784,200.473547 C121.908099,187.215849 118.397484,167.903 124.631887,151.436414 L62.5622217,89.3694206 C46.0963373,95.6045142 26.7835093,92.0932116 13.5258245,78.8355129 C2.27010007,67.5804608 -1.96028983,51.9602274 0.833286421,37.4237632 C1.15075382,35.7707416 2.27625784,34.5172914 3.88480493,34.0239848 C5.49403621,33.5299941 7.12926698,33.9364075 8.31908552,35.1269115 L36.4094765,63.2166479 C41.4280613,60.2910185 46.5930643,56.3178825 51.4556522,51.4552895 C56.3168717,46.5940649 60.2906877,41.4283723 63.216314,36.4097822 L35.1266072,8.31936164 C33.9354203,7.12954185 33.5303756,5.49430936 34.0236817,3.88576058 C34.5169877,2.2765276 35.7711207,1.15170659 37.4234564,0.833554662" id="Stroke-3" stroke="#000000" stroke-width="2"></path>
                </g>
                <path d="M135.191425,110.162595 L124.21156,99.1821115 L175.51395,47.8800431 C179.476629,48.9284552 183.885487,47.9061675 186.976431,44.814555 L195.603026,36.1887016 L204,27.7924678 L199.801513,23.5940071 L195.603714,19.3962339 L191.405914,15.1977732 L187.20674,11 L178.809766,19.3969214 L170.183858,28.0227747 C167.092226,31.1136997 166.07062,35.5225303 167.118351,39.4844967 L115.815961,90.7865651 L104.836096,79.8074563 L93.7751074,90.8683756 C98.8577035,95.9509398 98.8577035,104.19249 93.7751074,109.275742 C88.6918238,114.358993 80.4509095,114.358993 75.367626,109.275742 L18.2862151,166.35542 L18.2869026,166.356107 C9.90436582,174.739279 9.90436582,188.330137 18.2869026,196.712621 C26.6701268,205.095793 40.2610698,205.095793 48.6436066,196.712621 L105.72433,139.632256 C100.641046,134.549691 100.641046,126.306766 105.72433,121.224202 C110.806926,116.14095 119.049215,116.14095 124.132499,121.224202 L135.191425,110.162595 Z" id="Fill-4" fill="#F2E9DA"></path>
                <path d="M135.191425,110.162595 L124.21156,99.1821115 L175.51395,47.8800431 C179.476629,48.9284552 183.885487,47.9061675 186.976431,44.814555 L195.603026,36.1887016 L204,27.7924678 L199.801513,23.5940071 L195.603714,19.3962339 L191.405914,15.1977732 L187.20674,11 L178.809766,19.3969214 L170.183858,28.0227747 C167.092226,31.1136997 166.07062,35.5225303 167.118351,39.4844967 L115.815961,90.7865651 L104.836096,79.8074563 L93.7751074,90.8683756 C98.8577035,95.9509398 98.8577035,104.19249 93.7751074,109.275742 C88.6918238,114.358993 80.4509095,114.358993 75.367626,109.275742 L18.2862151,166.35542 L18.2869026,166.356107 C9.90436582,174.739279 9.90436582,188.330137 18.2869026,196.712621 C26.6701268,205.095793 40.2610698,205.095793 48.6436066,196.712621 L105.72433,139.632256 C100.641046,134.549691 100.641046,126.306766 105.72433,121.224202 C110.806926,116.14095 119.049215,116.14095 124.132499,121.224202 L135.191425,110.162595 Z" id="Stroke-6" stroke="#000000" stroke-width="2"></path>
                <path d="M91.6605611,133.538142 L91.6605611,133.538142 C89.8748702,131.752442 86.9513397,131.753125 85.1663323,133.538142 L40.53773,178.166975 C38.7520392,179.951308 38.7520392,182.874854 40.53773,184.660554 L40.53773,184.661238 C42.3241042,186.446254 45.2462679,186.446254 47.0319587,184.661238 L91.6598777,140.033088 C93.4469352,138.246021 93.4462519,135.323842 91.6605611,133.538142 M79.4614158,121.339617 L79.4614158,121.339617 C77.675725,119.553233 74.7535612,119.553917 72.9671871,121.338933 L28.3392681,165.967083 C26.5535773,167.752783 26.5535773,170.676329 28.3392681,172.461346 L28.3399515,172.461346 C30.1249589,174.247046 33.047806,174.247729 34.8334968,172.461346 L79.4614158,127.833196 C81.24779,126.047496 81.24779,123.125317 79.4614158,121.339617" id="Fill-8" fill="#F2E9DA"></path>
                <path d="M91.6605611,133.538142 L91.6605611,133.538142 C89.8748702,131.752442 86.9513397,131.753125 85.1663323,133.538142 L40.53773,178.166975 C38.7520392,179.951308 38.7520392,182.874854 40.53773,184.660554 L40.53773,184.661238 C42.3241042,186.446254 45.2462679,186.446254 47.0319587,184.661238 L91.6598777,140.033088 C93.4469352,138.246021 93.4462519,135.323842 91.6605611,133.538142 Z M79.4614158,121.339617 L79.4614158,121.339617 C77.675725,119.553233 74.7535612,119.553917 72.9671871,121.338933 L28.3392681,165.967083 C26.5535773,167.752783 26.5535773,170.676329 28.3392681,172.461346 L28.3399515,172.461346 C30.1249589,174.247046 33.047806,174.247729 34.8334968,172.461346 L79.4614158,127.833196 C81.24779,126.047496 81.24779,123.125317 79.4614158,121.339617 L79.4614158,121.339617 Z" id="Stroke-10" stroke="#000000" stroke-width="2"></path>
                <g id="编组" transform="translate(0, 34)">
                    <path d="M17.4993092,43.5812339 C6.37973787,32.4381911 2.2061558,17.0125433 4.97720198,2.6544965 C5.17046748,1.64993483 5.66656096,0.793820525 6.39130658,0.169528148 C5.58966307,-0.0650051447 4.72337088,-0.0589045678 3.86388382,0.204775926 C2.26331884,0.693499926 1.14455658,1.93530626 0.828798866,3.57297226 C-1.94973294,17.974401 2.25787474,33.4488534 13.4529829,44.6000303 C14.3968535,45.5408748 15.3720277,46.4322369 16.3751028,47.2727608 C28.1874357,57.1855206 43.8330945,60.2283528 58,56.4005797 C43.7677653,58.8699576 28.59166,54.6300566 17.600025,43.6815545 C17.5673604,43.6483402 17.5333348,43.6144482 17.4993092,43.5812339" id="Fill-12" fill="#000000"></path>
                    <path d="M17.4993092,43.5812339 C6.37973787,32.4381911 2.2061558,17.0125433 4.97720198,2.6544965 C5.17046748,1.64993483 5.66656096,0.793820525 6.39130658,0.169528148 C5.58966307,-0.0650051447 4.72337088,-0.0589045678 3.86388382,0.204775926 C2.26331884,0.693499926 1.14455658,1.93530626 0.828798866,3.57297226 C-1.94973294,17.974401 2.25787474,33.4488534 13.4529829,44.6000303 C14.3968535,45.5408748 15.3720277,46.4322369 16.3751028,47.2727608 C28.1874357,57.1855206 43.8330945,60.2283528 58,56.4005797 C43.7677653,58.8699576 28.59166,54.6300566 17.600025,43.6815545 C17.5673604,43.6483402 17.5333348,43.6144482 17.4993092,43.5812339" id="Stroke-14" stroke="#000000" stroke-width="2"></path>
                </g>
                <g id="编组" transform="translate(62, 88)">
                    <path d="M27,22.6979196 L3.84733698,0 C2.58022118,0.470363932 1.29594509,0.883530533 0,1.24151853 L23.2137537,24 C24.5227406,23.7631358 25.8015254,23.329109 27,22.6979196" id="Fill-15" fill="#000000"></path>
                    <path d="M27,22.6979196 L3.84733698,0 C2.58022118,0.470363932 1.29594509,0.883530533 0,1.24151853 L23.2137537,24 C24.5227406,23.7631358 25.8015254,23.329109 27,22.6979196" id="Stroke-17" stroke="#000000" stroke-width="2"></path>
                </g>
                <g id="编组" transform="translate(101, 125)">
                    <path d="M27.3751493,26.0843966 L1.30964395,0 C0.67413126,1.18448328 0.237809118,2.44829372 0,3.74058057 L23.2463494,27.0031 C17.5138624,42.151875 20.0999519,59.7319935 31.0052953,72.6860505 C31.8467738,73.6847591 32.7377111,74.6563472 33.6781072,75.5967469 C44.8232924,86.7506877 60.2903703,90.9421448 74.6849359,88.1745085 C75.1591991,88.0836551 75.6002639,87.9256788 76,87.7080377 C62.4299749,89.4512011 48.2291797,85.1085477 37.8069071,74.6793996 C36.7824986,73.6535706 35.8163567,72.5918071 34.9078039,71.4968211 C24.1935208,58.5685285 21.6833134,41.127402 27.3751493,26.0843966" id="Fill-18" fill="#000000"></path>
                    <path d="M1.30964395,0 C0.67413126,1.18448328 0.829605993,1.70771315 0.591796875,3 L23.2463494,27.0031 C17.5138624,42.151875 20.0999519,59.7319935 31.0052953,72.6860505 C31.8467738,73.6847591 32.7377111,74.6563472 33.6781072,75.5967469 C44.8232924,86.7506877 60.2903703,90.9421448 74.6849359,88.1745085 C75.1591991,88.0836551 73.8120286,87.9256788 74.2117647,87.7080377 C60.6417396,89.4512011 48.2291797,85.1085477 37.8069071,74.6793996 C36.7824986,73.6535706 35.8163567,72.5918071 34.9078039,71.4968211 C24.1935208,58.5685285 21.6833134,41.127402 27.3751493,26.0843966 L1.30964395,0 Z" id="Stroke-20" stroke="#000000" stroke-width="2"></path>
                </g>
                <g id="编组" transform="translate(178, 149)">
                    <path d="M31.1139157,27.7886423 L8.85375829,5.68362512 L3.1287051,0 C2.09125648,0.601055033 1.04767315,1.24542935 0,1.9358304 L6.8865594,8.77283139 L26.9600314,28.7051159 C28.1453948,29.8828588 29.7745027,30.2849159 31.3770268,29.7968971 C31.9959515,29.6080521 32.5439861,29.3068478 33,28.9149436 C32.3067771,28.7132382 31.6633136,28.3341945 31.1139157,27.7886423" id="Fill-21" fill="#000000"></path>
                    <path d="M31.1139157,27.7886423 L8.85375829,5.68362512 L3.1287051,0 C2.09125648,0.601055033 1.04767315,1.24542935 0,1.9358304 L6.8865594,8.77283139 L26.9600314,28.7051159 C28.1453948,29.8828588 29.7745027,30.2849159 31.3770268,29.7968971 C31.9959515,29.6080521 32.5439861,29.3068478 33,28.9149436 C32.3067771,28.7132382 31.6633136,28.3341945 31.1139157,27.7886423" id="Stroke-23" stroke="#000000" stroke-width="2"></path>
                </g>
                <g id="编组" transform="translate(35, 1)">
                    <path d="M33,35.1535231 L24.1635427,26.1517107 L5.38623919,7.02303068 C4.21660917,5.83219874 3.81709208,4.19394837 4.30202781,2.58379012 C4.64773789,1.43955 5.3694245,0.538546548 6.34064114,0 C5.40574423,0.121960923 4.47286509,0.274754664 3.54469405,0.455640527 C1.92039475,0.773561135 0.688214072,1.90067191 0.201933162,3.51151534 C-0.283002574,5.12304394 0.115841935,6.76060914 1.28681713,7.95212625 L21.0938524,28.1298073 L28.9005779,36.0819335 C26.0245929,41.1076828 22.1182035,46.2807444 17.3394679,51.1495889 C13.5521265,55.0084873 9.57780577,58.3075988 5.63576923,60.9688135 L6.64801372,62 C11.5821171,59.069512 16.6594817,55.0913933 21.4388899,50.2211785 C26.2182982,45.3530192 30.1246876,40.1792724 33,35.1535231" id="Fill-24" fill="#000000"></path>
                    <path d="M33,35.1535231 L24.1635427,26.1517107 L5.38623919,7.02303068 C4.21660917,5.83219874 3.81709208,4.19394837 4.30202781,2.58379012 C4.64773789,1.43955 5.3694245,0.538546548 6.34064114,0 C5.40574423,0.121960923 4.47286509,0.274754664 3.54469405,0.455640527 C1.92039475,0.773561135 0.688214072,1.90067191 0.201933162,3.51151534 C-0.283002574,5.12304394 0.115841935,6.76060914 1.28681713,7.95212625 L21.0938524,28.1298073 L28.9005779,36.0819335 C26.0245929,41.1076828 22.1182035,46.2807444 17.3394679,51.1495889 C13.5521265,55.0084873 9.57780577,58.3075988 5.63576923,60.9688135 L6.64801372,62 C11.5821171,59.069512 16.6594817,55.0913933 21.4388899,50.2211785 C26.2182982,45.3530192 30.1246876,40.1792724 33,35.1535231" id="Stroke-26" stroke="#000000" stroke-width="2"></path>
                </g>
                <path d="M56.7541536,187.482761 L104,140.584683 C103.202541,139.792417 102.530602,138.922956 101.984865,138 L53.950428,185.67951 L47.3599674,192.221459 C39.0422481,200.477954 25.5563961,200.477954 17.2379946,192.221459 C13.7541438,188.763253 11.7287761,184.403759 11.1639379,179.898677 C11.1584806,179.85534 11.0943564,179.856017 11.0909456,179.900032 C10.5281539,185.943599 12.5773977,192.180153 17.2379946,196.807122 C25.5570783,205.064293 39.0429302,205.064293 47.3599674,196.807122 L56.7541536,187.482761 Z" id="Fill-27" fill="#F2E9DA"></path>
                <path d="M56.7541536,187.482761 L104,140.584683 C103.202541,139.792417 102.530602,138.922956 101.984865,138 L53.950428,185.67951 L47.3599674,192.221459 C39.0422481,200.477954 25.5563961,200.477954 17.2379946,192.221459 C13.7541438,188.763253 11.7287761,184.403759 11.1639379,179.898677 C11.1584806,179.85534 11.0943564,179.856017 11.0909456,179.900032 C10.5281539,185.943599 12.5773977,192.180153 17.2379946,196.807122 C25.5570783,205.064293 39.0429302,205.064293 47.3599674,196.807122 L56.7541536,187.482761 Z" id="Stroke-29" stroke="#000000" stroke-width="2"></path>
                <path d="M123.032534,116.619216 C117.992231,111.601574 109.820314,111.601574 104.78001,116.619216 C101.684525,119.700366 100.490231,123.958068 101.197128,127.946397 C101.200536,127.964039 101.203944,127.982359 101.206671,128 C101.209398,127.987787 101.211443,127.974895 101.213488,127.96336 C101.452756,126.669426 101.891754,125.405347 102.531847,124.219297 C103.114679,123.139775 103.864521,122.12539 104.78001,121.213462 C109.820314,116.197177 117.992231,116.197177 123.032534,121.213462 L134,110.297462 L131.691168,108 L123.032534,116.619216 Z" id="Fill-31" fill="#F2E9DA"></path>
                <path d="M123.032534,116.619216 C117.992231,111.601574 109.820314,111.601574 104.78001,116.619216 C101.684525,119.700366 100.490231,123.958068 101.197128,127.946397 C101.200536,127.964039 101.728719,127.928756 101.731445,127.946397 C101.970713,126.652463 101.891754,125.405347 102.531847,124.219297 C103.114679,123.139775 103.864521,122.12539 104.78001,121.213462 C109.820314,116.197177 117.992231,116.197177 123.032534,121.213462 L134,110.297462 L131.691168,108 L123.032534,116.619216 Z" id="Stroke-33" stroke="#000000" stroke-width="2"></path>
                <path d="M127.30483,97 L175.795438,48.2939891 C177.795999,48.8252379 179.912277,48.8211355 181.910795,48.2816821 C183.832394,47.763424 185.644402,46.7515215 187.145333,45.245291 L195.686002,36.6666827 L204,28.3157525 L201.694489,26 L195.686002,32.0365452 L187.145333,40.6144698 C184.727507,43.042352 181.497613,44.1868957 178.314007,44.048101 C177.465181,44.0104965 176.62044,43.883325 175.795438,43.6631678 L125,94.6842475 L127.30483,97 Z" id="Fill-35" fill="#F2E9DA"></path>
                <path d="M127.30483,97 L175.795438,48.2939891 C177.795999,48.8252379 179.912277,48.8211355 181.910795,48.2816821 C183.832394,47.763424 185.644402,46.7515215 187.145333,45.245291 L195.686002,36.6666827 L204,28.3157525 L201.694489,26 L195.686002,32.0365452 L187.145333,40.6144698 C184.727507,43.042352 181.497613,44.1868957 178.314007,44.048101 C177.465181,44.0104965 176.62044,43.883325 175.795438,43.6631678 L125,94.6842475 L127.30483,97 Z" id="Stroke-37" stroke="#000000" stroke-width="2"></path>
                <g id="编组" transform="translate(177, 23)">
                    <path d="M31,15.5003388 C22.4389988,15.5003388 15.5003388,8.56032353 15.5003388,0 C15.5003388,8.56032353 8.56032353,15.5003388 0,15.5003388 C8.56032353,15.5003388 15.5003388,22.4396765 15.5003388,31 C15.5003388,22.4396765 22.4389988,15.5003388 31,15.5003388" id="Fill-39" fill="#000000"></path>
                    <path d="M31,15.5003388 C22.4389988,15.5003388 15.5003388,8.56032353 15.5003388,0 C15.5003388,8.56032353 8.56032353,15.5003388 0,15.5003388 C8.56032353,15.5003388 15.5003388,22.4396765 15.5003388,31 C15.5003388,22.4396765 22.4389988,15.5003388 31,15.5003388" id="Stroke-41" stroke="#F2E9DA" stroke-width="2"></path>
                </g>
                <path d="M102.138227,173.771447 C103.847132,174.227302 105.465274,174.903973 106.961496,175.770301 L111.729224,172.61386 C112.31376,172.227094 113.073047,172.302957 113.568176,172.798776 L115.384776,174.615423 L117.200021,176.430715 C117.696504,176.927211 117.772365,177.683809 117.385609,178.269037 L114.22925,183.038244 C115.095556,184.533151 115.772886,186.152013 116.229407,187.860961 L121.830251,189.000261 C122.517741,189.139794 123,189.729764 123,190.431497 L123,193 L123,195.568503 C123,196.269558 122.518418,196.859528 121.830251,196.999062 L116.230084,198.138361 C115.774241,199.84731 115.096233,201.466849 114.22925,202.961756 L117.385609,207.730285 C117.772365,208.314837 117.696504,209.072112 117.200021,209.568608 L115.384776,211.3839 L113.568176,213.200547 C113.073047,213.696366 112.314438,213.772906 111.729224,213.385463 L106.960819,210.229022 C105.465274,211.096027 103.847132,211.772698 102.138227,212.227875 L100.998281,217.830897 C100.858751,218.518406 100.269473,219 99.5677591,219 L97,219 L94.4315636,219 C93.7305268,219 93.1398948,218.518406 93.001042,217.830897 L91.8617725,212.227875 C90.1521909,211.772698 88.5340489,211.096027 87.0385036,210.229022 L82.2707758,213.385463 C81.6855624,213.772906 80.9276299,213.695688 80.4318241,213.200547 L78.6152243,211.3839 L76.7999792,209.568608 C76.3034961,209.072112 76.2276351,208.314837 76.6143907,207.730285 L79.7714271,202.961756 C78.9044443,201.466849 78.2264367,199.846633 77.7712708,198.138361 L72.1697494,196.999062 C71.4822592,196.859528 71,196.269558 71,195.568503 L71,193 L71,190.431497 C71,189.729764 71.4822592,189.139794 72.1697494,189.000261 L77.7699161,187.860961 C78.2257594,186.151335 78.903767,184.533151 79.7707498,183.037567 L76.6137133,178.269037 C76.2269577,177.683809 76.3028187,176.926534 76.7993018,176.430715 L78.6152243,174.615423 L80.4311468,172.798776 C80.9269525,172.302957 81.6848851,172.227094 82.2700985,172.61386 L87.0385036,175.770301 C88.5333715,174.903973 90.1521909,174.227302 91.8610952,173.771447 L93.0003647,168.169103 C93.1398948,167.481594 93.7298494,167 94.4308863,167 L96.9993227,167 L99.5670817,167 C100.268796,167 100.858073,167.481594 100.997603,168.169103 L102.138227,173.771447 Z M97,182.698215 C102.68822,182.698215 107.300162,187.310277 107.300162,193 C107.300162,198.688368 102.68822,203.301107 97,203.301107 C91.3104257,203.301107 86.6984838,198.688368 86.6984838,193 C86.6984838,187.310277 91.3104257,182.698215 97,182.698215 L97,182.698215 Z" id="Fill-42" fill="#F2E9DA"></path>
                <path d="M102.138227,173.771447 C103.847132,174.227302 105.465274,174.903973 106.961496,175.770301 L111.729224,172.61386 C112.31376,172.227094 113.073047,172.302957 113.568176,172.798776 L115.384776,174.615423 L117.200021,176.430715 C117.696504,176.927211 117.772365,177.683809 117.385609,178.269037 L114.22925,183.038244 C115.095556,184.533151 115.772886,186.152013 116.229407,187.860961 L121.830251,189.000261 C122.517741,189.139794 123,189.729764 123,190.431497 L123,193 L123,195.568503 C123,196.269558 122.518418,196.859528 121.830251,196.999062 L116.230084,198.138361 C115.774241,199.84731 115.096233,201.466849 114.22925,202.961756 L117.385609,207.730285 C117.772365,208.314837 117.696504,209.072112 117.200021,209.568608 L115.384776,211.3839 L113.568176,213.200547 C113.073047,213.696366 112.314438,213.772906 111.729224,213.385463 L106.960819,210.229022 C105.465274,211.096027 103.847132,211.772698 102.138227,212.227875 L100.998281,217.830897 C100.858751,218.518406 100.269473,219 99.5677591,219 L97,219 L94.4315636,219 C93.7305268,219 93.1398948,218.518406 93.001042,217.830897 L91.8617725,212.227875 C90.1521909,211.772698 88.5340489,211.096027 87.0385036,210.229022 L82.2707758,213.385463 C81.6855624,213.772906 80.9276299,213.695688 80.4318241,213.200547 L78.6152243,211.3839 L76.7999792,209.568608 C76.3034961,209.072112 76.2276351,208.314837 76.6143907,207.730285 L79.7714271,202.961756 C78.9044443,201.466849 78.2264367,199.846633 77.7712708,198.138361 L72.1697494,196.999062 C71.4822592,196.859528 71,196.269558 71,195.568503 L71,193 L71,190.431497 C71,189.729764 71.4822592,189.139794 72.1697494,189.000261 L77.7699161,187.860961 C78.2257594,186.151335 78.903767,184.533151 79.7707498,183.037567 L76.6137133,178.269037 C76.2269577,177.683809 76.3028187,176.926534 76.7993018,176.430715 L78.6152243,174.615423 L80.4311468,172.798776 C80.9269525,172.302957 81.6848851,172.227094 82.2700985,172.61386 L87.0385036,175.770301 C88.5333715,174.903973 90.1521909,174.227302 91.8610952,173.771447 L93.0003647,168.169103 C93.1398948,167.481594 93.7298494,167 94.4308863,167 L96.9993227,167 L99.5670817,167 C100.268796,167 100.858073,167.481594 100.997603,168.169103 L102.138227,173.771447 Z M97,182.698215 C102.68822,182.698215 107.300162,187.310277 107.300162,193 C107.300162,198.688368 102.68822,203.301107 97,203.301107 C91.3104257,203.301107 86.6984838,198.688368 86.6984838,193 C86.6984838,187.310277 91.3104257,182.698215 97,182.698215 L97,182.698215 Z" id="Stroke-44" stroke="#000000" stroke-width="2"></path>
                <path d="M131.138633,16.7716236 C132.84756,17.2274906 134.4664,17.9048562 135.961965,18.7712068 L140.729755,15.6140058 C141.314976,15.2272301 142.072918,15.3037724 142.56873,15.7989266 L144.384677,17.6156211 L146.199945,19.4316382 C146.695758,19.9274698 146.772974,20.6847645 146.386214,21.2700083 L143.229136,26.0386619 C144.095453,27.5342851 144.772792,29.1525115 145.228641,30.8615048 L150.830235,32.0008337 C151.518412,32.140371 152,32.7303564 152,33.4321071 L152,36 L152,38.5685702 C152,39.2696436 151.518412,39.859629 150.830235,39.9991663 L145.229318,41.1384952 C144.774146,42.8481659 144.09613,44.4670696 143.229136,45.9620154 L146.386214,50.730669 C146.772974,51.3152355 146.695758,52.0725302 146.199945,52.5690392 L144.384677,54.3850563 L142.56873,56.2010734 C142.072918,56.696905 141.314976,56.7734473 140.729755,56.3859942 L135.961287,53.2294706 C134.465723,54.0958212 132.846882,54.7738641 131.138633,55.2290538 L129.998671,60.830867 C129.85914,61.5190704 129.269177,62 128.568131,62 L125.999661,62 L123.431191,62 C122.730145,62 122.14086,61.5183931 122.000651,60.830867 L120.86069,55.2290538 C119.15244,54.7738641 117.5336,54.0958212 116.038035,53.2294706 L111.269568,56.3859942 C110.685024,56.7734473 109.927082,56.696905 109.430592,56.2010734 L107.615323,54.3850563 L105.7987,52.5690392 C105.30221,52.0725302 105.226348,51.3152355 105.613109,50.730669 L108.770187,45.9620154 C107.903193,44.4663922 107.226531,42.8481659 106.770004,41.1384952 L101.169087,39.9991663 C100.481588,39.859629 100,39.2696436 100,38.5685702 L100,36 L100,33.4321071 C100,32.7303564 100.481588,32.140371 101.169087,32.0008337 L106.770004,30.8615048 C107.225854,29.1518341 107.902515,27.5336078 108.770187,26.0373072 L105.613109,21.2700083 C105.226348,20.6840871 105.30221,19.926115 105.7987,19.4309608 L107.615323,17.6149437 L109.430592,15.7989266 C109.927082,15.303095 110.684347,15.2265527 111.269568,15.6133285 L116.038713,18.7705294 C117.5336,17.9041788 119.153118,17.2268133 120.86069,16.7709462 L122.000651,11.169133 C122.14086,10.4809296 122.730145,10 123.431191,10 L125.999661,10 L128.568131,10 C129.269855,10 129.85914,10.4816069 129.998671,11.169133 L131.138633,16.7716236 Z M125.999661,25.6993018 C131.688632,25.6993018 136.300634,30.311484 136.300634,36.0013547 C136.300634,41.6898708 131.688632,46.3027303 125.999661,46.3027303 C120.311368,46.3027303 115.698688,41.6898708 115.698688,36.0013547 C115.698688,30.311484 120.311368,25.6993018 125.999661,25.6993018 L125.999661,25.6993018 Z" id="Fill-46" fill="#F2E9DA"></path>
                <path d="M131.138633,16.7716236 C132.84756,17.2274906 134.4664,17.9048562 135.961965,18.7712068 L140.729755,15.6140058 C141.314976,15.2272301 142.072918,15.3037724 142.56873,15.7989266 L144.384677,17.6156211 L146.199945,19.4316382 C146.695758,19.9274698 146.772974,20.6847645 146.386214,21.2700083 L143.229136,26.0386619 C144.095453,27.5342851 144.772792,29.1525115 145.228641,30.8615048 L150.830235,32.0008337 C151.518412,32.140371 152,32.7303564 152,33.4321071 L152,36 L152,38.5685702 C152,39.2696436 151.518412,39.859629 150.830235,39.9991663 L145.229318,41.1384952 C144.774146,42.8481659 144.09613,44.4670696 143.229136,45.9620154 L146.386214,50.730669 C146.772974,51.3152355 146.695758,52.0725302 146.199945,52.5690392 L144.384677,54.3850563 L142.56873,56.2010734 C142.072918,56.696905 141.314976,56.7734473 140.729755,56.3859942 L135.961287,53.2294706 C134.465723,54.0958212 132.846882,54.7738641 131.138633,55.2290538 L129.998671,60.830867 C129.85914,61.5190704 129.269177,62 128.568131,62 L125.999661,62 L123.431191,62 C122.730145,62 122.14086,61.5183931 122.000651,60.830867 L120.86069,55.2290538 C119.15244,54.7738641 117.5336,54.0958212 116.038035,53.2294706 L111.269568,56.3859942 C110.685024,56.7734473 109.927082,56.696905 109.430592,56.2010734 L107.615323,54.3850563 L105.7987,52.5690392 C105.30221,52.0725302 105.226348,51.3152355 105.613109,50.730669 L108.770187,45.9620154 C107.903193,44.4663922 107.226531,42.8481659 106.770004,41.1384952 L101.169087,39.9991663 C100.481588,39.859629 100,39.2696436 100,38.5685702 L100,36 L100,33.4321071 C100,32.7303564 100.481588,32.140371 101.169087,32.0008337 L106.770004,30.8615048 C107.225854,29.1518341 107.902515,27.5336078 108.770187,26.0373072 L105.613109,21.2700083 C105.226348,20.6840871 105.30221,19.926115 105.7987,19.4309608 L107.615323,17.6149437 L109.430592,15.7989266 C109.927082,15.303095 110.684347,15.2265527 111.269568,15.6133285 L116.038713,18.7705294 C117.5336,17.9041788 119.153118,17.2268133 120.86069,16.7709462 L122.000651,11.169133 C122.14086,10.4809296 122.730145,10 123.431191,10 L125.999661,10 L128.568131,10 C129.269855,10 129.85914,10.4816069 129.998671,11.169133 L131.138633,16.7716236 Z M125.999661,25.6993018 C131.688632,25.6993018 136.300634,30.311484 136.300634,36.0013547 C136.300634,41.6898708 131.688632,46.3027303 125.999661,46.3027303 C120.311368,46.3027303 115.698688,41.6898708 115.698688,36.0013547 C115.698688,30.311484 120.311368,25.6993018 125.999661,25.6993018 L125.999661,25.6993018 Z" id="Stroke-48" stroke="#000000" stroke-width="2"></path>
            </g>
        </g>
    </g>
</svg>