<?xml version="1.0" encoding="UTF-8"?>
<svg width="214px" height="238px" viewBox="0 0 214 238" version="1.1" xmlns="http://www.w3.org/2000/svg" xmlns:xlink="http://www.w3.org/1999/xlink">
    <title>编组</title>
    <defs>
        <polygon id="path-1" points="0 0 35 0 35 35 0 35"></polygon>
        <polygon id="path-3" points="0 0 35 0 35 35 0 35"></polygon>
        <polygon id="path-5" points="0 0 35 0 35 35 0 35"></polygon>
        <polygon id="path-7" points="0 0 35 0 35 35 0 35"></polygon>
    </defs>
    <g id="z" stroke="none" stroke-width="1" fill="none" fill-rule="evenodd">
        <g id="落地页1" transform="translate(-1303, -2191)">
            <g id="编组" transform="translate(1303, 2191)">
                <path d="M209.994214,165.558398 C210.006496,165.629365 209.994214,165.713173 209.981932,165.78414 C209.958051,166.130187 209.873443,166.463393 209.741755,166.784434 C209.513178,167.355547 209.116749,167.880025 208.563387,168.272708 C204.044377,171.511497 195.847657,177.369297 186.796672,183.690748 C171.063037,194.691274 152.769335,207.121274 146.867943,209.717307 C139.511842,212.955419 125.665507,220.515747 117.24021,225.194147 C112.551984,227.802345 107.239434,229.111513 101.855241,228.99256 L98.2737395,228.908751 L63.9939438,228.135551 L8.24765422,226.873694 L8.16372876,226.873694 L1.28866464,226.718243 C1.27638287,216.134055 1.15629441,200.299001 1.06008718,182.868885 C1.04780541,178.047875 1.02392418,173.094394 1.00004295,168.106443 C15.5075473,165.748319 37.5751657,162.48655 61.2899066,160.164923 C62.335222,160.069625 63.3812197,159.962836 64.4388169,159.866862 C66.3854781,159.688432 68.344421,159.510001 70.3163281,159.343736 C70.3886541,159.33157 70.4725795,159.33157 70.5571873,159.32008 C72.0466936,159.188285 73.5491639,159.069331 75.0516343,158.950377 L90.7013435,158.748291 L92.5886428,158.724635 L121.699176,158.342766 C121.699176,158.342766 134.83658,150.604684 149.127789,144.842182 C149.776676,144.567777 150.425563,144.317703 151.086732,144.068306 C154.72896,142.650998 158.406669,141.401307 161.940409,140.46049 C163.935515,139.924522 165.870576,139.496018 167.733312,139.198633 C168.63534,139.055348 169.465042,138.924904 170.234018,138.80595 L170.245617,138.80595 C171.567955,138.591698 172.709477,138.424757 173.743193,138.293638 C176.54412,137.948266 178.539226,137.900955 180.93076,138.18685 C187.626374,138.984381 188.466993,144.675917 185.70223,146.640007 C185.678348,146.663662 185.654467,146.687318 185.630586,146.699484 L185.630586,146.90157 C185.630586,146.90157 186.820553,146.294635 188.755615,145.830309 C188.815659,145.805978 188.876386,145.794488 188.93643,145.782322 C189.501392,145.651879 190.126397,145.532249 190.811448,145.436951 C190.835329,145.436951 190.85921,145.436951 190.883091,145.425461 C193.827988,145.068599 197.698111,145.295017 201.676724,147.545002 C201.688323,147.532836 201.700605,147.545002 201.712204,147.556492 C201.905301,147.675446 202.097715,147.78291 202.289448,147.901864 C204.321399,149.152231 204.464686,152.032806 202.601951,153.521081 L197.554141,157.521579 L192.289354,161.688343 C192.289354,161.688343 192.529531,161.593721 192.975087,161.43827 C194.450947,160.952316 198.14776,159.961485 202.365185,160.552199 C202.797777,160.60762 203.224909,160.673856 203.636349,160.759692 C204.08054,160.855666 204.537012,160.962454 204.994167,161.117229 C205.210463,161.177382 205.426759,161.248349 205.630772,161.319992 C206.5328,161.617376 207.434146,162.022225 208.323893,162.533861 C208.897042,162.858957 209.315987,163.332745 209.593691,163.852492 C209.595056,163.853844 209.596421,163.854519 209.597785,163.855195 C209.610067,163.867361 209.621667,163.879527 209.621667,163.891017 C209.897324,164.415495 210.030377,164.986608 209.994214,165.558398" id="Fill-1" fill="#F2E9DA"></path>
                <path d="M141.000043,170 C141.000043,170 175.735808,149.958424 186.156606,147.139007 C195.589295,144.586282 201.003449,146.488734 202.854279,151.205228 C203.208635,152.10943 202.895166,153.140597 202.149655,153.772732 L192.080488,162.345856" id="Fill-3" fill="#F2E9DA"></path>
                <path d="M142.688032,170 L142.000043,168.850139 C143.420979,168.037847 176.918569,148.910346 187.301759,146.125247 C192.620393,144.697076 201.965469,143.375436 204.808023,150.55757 C205.258281,151.696111 204.899301,153.017752 203.913637,153.846024 L193.848557,162.343141 L192.958939,161.335098 L203.024019,152.837982 C203.575091,152.374576 203.780807,151.651502 203.537627,151.037621 C201.691635,146.372264 196.202025,145.119202 187.662102,147.40827 C177.450568,150.14876 143.034752,169.801587 142.688032,170" id="Fill-5" fill="#000000"></path>
                <path d="M62.000043,162 L62.942017,175.587763 C63.1258168,178.227434 66.1792652,179.811927 68.6902077,178.569282 L79.000043,173.470511 L62.000043,162 Z" id="Fill-7" fill="#000000"></path>
                <path d="M58.000043,51.143876 C64.878796,47.6049778 69.075077,40.5319434 72.2048579,33.5337416 C75.3346388,26.5348595 77.8686982,19.0883428 82.8864259,13.2534466 C91.5758131,3.14493287 106.310772,-0.172188943 119.665148,1.35303401 C126.025492,2.07890951 132.437608,3.83679359 137.527816,7.66549777 C142.588342,11.4717522 145.984576,17.0454148 148.551079,22.7864302 C151.116892,28.5281259 152.973085,34.563029 155.658318,40.250301 C159.343093,48.0594153 164.586546,55.1501373 171.000043,61" id="Fill-9" fill="#F2E9DA"></path>
                <path d="M171.068436,61 C164.673322,55.1442656 159.35103,47.9186895 155.677387,40.1051665 C154.22822,37.0243788 153.004587,33.8011819 151.821398,30.6837747 C150.817813,28.0390308 149.779267,25.3034161 148.613216,22.6837634 C145.545563,15.7945444 142.134469,11.0889346 137.878144,7.87590976 C133.56355,4.61812772 127.708617,2.54708976 120.475811,1.71772519 C105.672242,0.0244109151 92.2424341,4.36789426 84.5537644,13.3457828 C80.6299105,17.9252587 78.206636,23.6507902 75.863566,29.1877991 C75.2664876,30.597651 74.6707802,32.0061467 74.05108,33.3970108 C71.2384363,39.7084549 67.0588875,47.44467 59.6341388,51.2788706 L59.000043,50.0765293 C66.0470762,46.4369548 70.0744419,38.9584326 72.7965984,32.8497522 C73.4121856,31.4663477 74.0051509,30.0659897 74.5988018,28.6635972 C76.9823168,23.032327 79.4474074,17.2084652 83.5083631,12.4689484 C91.4924872,3.14453064 105.367876,-1.38137222 120.634163,0.370940187 C128.115124,1.22743034 134.19696,3.39069527 138.709666,6.797668 C143.157249,10.1551365 146.702702,15.0296031 149.867697,22.1365048 C151.049515,24.7907427 152.094231,27.5446671 153.105357,30.2070427 C154.279634,33.3000368 155.492985,36.4988207 156.919529,39.5328168 C160.519137,47.1890114 165.73449,54.2674313 172.000043,60.0044912 L171.068436,61 Z" id="Fill-11" fill="#000000"></path>
                <polygon id="Fill-13" fill="#F2E9DA" points="75.000043 76.589356 71.7032905 79 66.9424301 73.2288806 64.9592163 70.8296966 58.000043 62.3985098 61.2967954 60 67.8515824 67.944474 70.7181366 71.4"></polygon>
                <path d="M59.9068197,63.3162327 L72.0473334,78.1873326 L74.0959814,76.6721518 L61.9541102,61.8100861 L59.9068197,63.3162327 Z M71.8070347,80 L58.000043,63.0871487 L62.1950876,60 L76.000043,76.8992998 L71.8070347,80 Z" id="Fill-15" fill="#000000"></path>
                <path d="M49.9852278,54 L47.2944626,49.4154418 C46.6533389,48.3227492 47.0915278,46.9799778 48.2956076,46.3524714 L52.1761721,44.3267671 C53.4478969,43.6629695 55.0946753,44.0430365 55.8289987,45.1720202 L59.000043,50.0429483 L49.9852278,54 Z" id="Fill-17" fill="#F2E9DA"></path>
                <path d="M53.8552079,44.4866693 C53.5386537,44.4866693 53.2256403,44.576594 52.9459112,44.7504979 L49.2896033,47.0328009 C48.4787429,47.5381627 48.1820175,48.6232042 48.6140043,49.5031283 L50.8291759,54.0142254 L58.0277754,50.236646 L55.4110686,45.4327363 C55.1709972,44.9927743 54.7822091,44.6791527 54.3148136,44.5498395 C54.1632641,44.5074783 54.0088819,44.4866693 53.8552079,44.4866693 L53.8552079,44.4866693 Z M50.2109391,56 L47.3548691,50.1838803 C46.5808337,48.6061111 47.1126732,46.6612114 48.5658484,45.755276 L52.2221563,43.4737162 C52.9671564,43.0084861 53.8382117,42.8814024 54.6759828,43.1125311 C55.5137539,43.344403 56.2113064,43.9069896 56.6411686,44.6955026 L60.000043,50.8638892 L50.2109391,56 Z" id="Fill-19" fill="#000000"></path>
                <polygon id="Fill-21" fill="#000000" points="71.000043 72.2695497 67.721283 74 66.000043 71.72994 68.5112481 69"></polygon>
                <path d="M49.5316406,88 L90.000043,57.1172237 C90.000043,57.1172237 73.2767959,35.631499 52.0940625,52.3988963 C33.2528883,67.3139801 49.5316406,88 49.5316406,88" id="Fill-23" fill="#F2E9DA"></path>
                <path d="M67.9349298,46.4013164 C62.5694198,46.4013164 57.2428399,48.513046 52.0658331,52.6986957 C44.5987863,58.7377103 41.9064696,66.4144356 44.0626451,75.5160183 C45.3821671,81.0859152 48.2097144,85.5292295 49.2533115,87.038108 L88.0494451,56.7926225 C86.3119379,54.7628134 79.6528592,47.6875389 70.453769,46.5560552 C69.6143836,46.4524292 68.7743152,46.4013164 67.9349298,46.4013164 L67.9349298,46.4013164 Z M48.9951442,89 L48.5785249,88.4601646 C48.4111942,88.24241 44.4526281,83.0464069 42.745855,75.889912 C41.1551889,69.2214396 41.3341303,59.5940251 51.2196179,51.59942 C57.5051052,46.5168453 64.0378321,44.3533027 70.6286125,45.1669068 C81.9032863,46.5602562 89.2651539,56.0693411 89.5738619,56.4733424 L90.000043,57.0320825 L48.9951442,89 Z" id="Fill-25" fill="#000000"></path>
                <polygon id="Fill-27" fill="#F2E9DA" points="167.000043 68.5316451 158.850861 78.2133569 153.151116 85 150.000043 82.4683549 156.893408 74.2704514 163.84897 66"></polygon>
                <path d="M150.868743,81.5702885 L152.832934,83.1605286 L165.131343,68.4297115 L163.167152,66.8394714 L150.868743,81.5702885 Z M153.015295,85 L149.000043,81.7501799 L162.984791,65 L167.000043,68.2498201 L153.015295,85 Z" id="Fill-29" fill="#000000"></path>
                <path d="M170.000043,50.9788807 L174.061533,46.7990939 C175.029622,45.8028791 176.609963,45.7284792 177.667012,46.6302061 L181.078872,49.5362665 C182.196474,50.4885853 182.314588,52.1692792 181.337528,53.2651899 L177.121293,58 L170.000043,50.9788807 Z" id="Fill-31" fill="#F2E9DA"></path>
                <path d="M170.979757,50.78328 L176.666066,56.8088747 L180.144476,52.6104736 C180.462808,52.2261978 180.619861,51.7326672 180.58676,51.219546 C180.553659,50.7064248 180.33463,50.2392661 179.969816,49.9054736 L176.754805,46.9631268 C176.042784,46.309858 174.973696,46.3633552 174.322242,47.0851909 L170.979757,50.78328 Z M176.732268,59 L169.000043,50.805131 L173.3102,46.0370976 C174.479295,44.7441227 176.396329,44.647677 177.671065,45.8178343 L180.885372,48.7601811 C181.539643,49.3599527 181.933332,50.1970711 181.992491,51.116319 C182.050946,52.0355669 181.768532,52.9209081 181.19807,53.6095906 L176.732268,59 Z" id="Fill-33" fill="#000000"></path>
                <polygon id="Fill-35" fill="#000000" points="165.000043 67.6947044 158.000043 77.2902832 155.349286 74.2033691 161.882217 65"></polygon>
                <path d="M139.000043,55.0516071 L174.705544,91 C174.705544,91 193.614253,71.6207976 174.332772,52.8848509 C157.1825,36.2175484 139.000043,55.0516071 139.000043,55.0516071" id="Fill-37" fill="#F2E9DA"></path>
                <path d="M139.96201,54.8071654 L174.924727,89.9990382 C176.685359,87.9758048 182.739963,80.3157749 182.609443,70.8754109 C182.521273,64.4966926 179.655385,58.5216465 174.089537,53.1145257 C167.135872,46.3585825 159.214415,44.656895 150.545938,48.0588781 C145.259875,50.1322225 141.298452,53.5578692 139.96201,54.8071654 L139.96201,54.8071654 Z M174.952497,92 L138.000043,54.8043814 L138.473525,54.3137108 C138.66514,54.1153546 143.237508,49.4306679 150.039825,46.7622548 C156.379074,44.2747983 165.865384,43.184883 175.056635,52.1157847 C180.899491,57.7922524 183.908396,64.1013721 183.997955,70.868451 C184.151385,82.4399263 175.800183,91.1314086 175.444724,91.4961056 L174.952497,92 Z" id="Fill-39" fill="#000000"></path>
                <polygon id="Fill-41" fill="#000000" points="115.181616 70 114.000043 69.8887906 115.817847 47 117.000043 47.1112094"></polygon>
                <path d="M70.1594719,78.159504 C94.3727272,53.946832 133.628213,53.946832 157.840101,78.159504 C182.053357,102.372176 182.053357,141.628507 157.840101,165.840496 C133.628213,190.053168 94.3727272,190.053168 70.1594719,165.840496 C45.9469,141.628507 45.9469,102.372176 70.1594719,78.159504" id="Fill-43" fill="#000000"></path>
                <path d="M86.7196413,64.5544228 C118.445305,51.6971228 154.588147,66.9932178 167.445508,98.7194132 C180.30287,130.445609 165.007385,166.587594 133.280355,179.445577 C101.554691,192.302877 65.4125321,177.006782 52.5544875,145.280587 C39.697126,113.555075 54.9932942,77.4117227 86.7196413,64.5544228" id="Fill-45" fill="#F2E9DA"></path>
                <path d="M109.522596,61.3626029 C101.752234,61.3626029 93.978467,62.863417 86.5602509,65.8691311 C71.4295694,71.9997254 59.5921645,83.6535064 53.2297041,98.6848003 C46.8665626,113.715413 46.7385096,130.323788 52.8707472,145.449734 C59.0029847,160.577041 70.6592084,172.410593 85.6945312,178.77203 C100.729854,185.134147 117.34268,185.260804 132.471999,179.13021 C163.707382,166.475432 178.819673,130.775939 166.161503,99.549607 C160.029266,84.4229801 148.372361,72.5887473 133.3384,66.2279918 C125.674976,62.9853071 117.600148,61.3626029 109.522596,61.3626029 M109.508973,185 C101.250239,185 92.998317,183.341205 85.1632478,180.02634 C69.7934887,173.523266 57.8770724,161.425505 51.6086083,145.961808 C45.3401442,130.498111 45.4702406,113.519981 51.9750577,98.1536592 C58.4798748,82.7880188 70.580197,70.8741148 86.0480391,64.6073304 L86.304145,65.2378903 L86.0480391,64.6073304 C101.516562,58.3405461 118.500606,58.4706076 133.869003,64.9736816 C149.238762,71.4767556 161.155859,83.5745162 167.424323,99.0375325 C180.364482,130.960476 164.914349,167.456 132.984211,180.392691 C125.401161,183.465138 117.452343,185 109.508973,185" id="Fill-47" fill="#000000"></path>
                <path d="M162.869006,119.221247 C164.78724,149.357345 145.488193,172.923414 115.27087,174.836676 C98.9054703,175.873111 83.7731227,172.047958 73.0306045,161.319855 C63.9310113,152.259091 57.9909418,139.958182 57.112152,126.152968 C55.1939188,96.0168692 78.1207196,70.0244587 108.324311,68.111882 C126.339501,66.9706382 142.858689,74.6414956 153.676042,87.4047939 C161.016682,96.0566004 162.09526,107.047751 162.869006,119.221247" id="Fill-49" fill="#000000"></path>
                <path d="M164.888462,119.852555 C166.797774,149.991889 143.976236,175.974075 113.900133,177.888227 C97.6108466,178.924774 82.5488774,172.684939 71.8556378,161.955684 C64.5655381,153.300893 59.8817789,142.321578 59.1116306,130.160477 C57.2023188,100.021142 80.0224902,74.0252552 110.085609,72.111788 C126.374896,71.075241 141.436865,77.3143909 152.128054,88.0313144 C159.433188,96.6854202 164.11763,107.677751 164.888462,119.852555" id="Fill-51" fill="#F2E9DA"></path>
                <path d="M114.035479,72.3655242 C112.90431,72.3655242 111.771097,72.4010277 110.635161,72.4734002 C96.3276769,73.3842011 83.2303598,79.8287665 73.7553715,90.6197778 C64.2803833,101.410106 59.5636602,115.253052 60.4728177,129.599191 C61.207635,141.200637 65.5436696,152.021007 73.0137441,160.888686 C83.8814119,171.790987 98.9679795,177.504999 114.350108,176.526605 C128.664403,175.615804 141.766487,169.172605 151.242837,158.38569 C160.717826,147.599458 165.435911,133.759243 164.527434,119.413104 C163.791255,107.787078 159.449091,96.9585154 151.970163,88.0976648 C141.902009,78.0092129 128.221742,72.3655242 114.035479,72.3655242 M110.953196,178 C96.3998647,178 82.3702354,172.206104 72.0119682,161.812459 C64.3130721,152.676456 59.8667127,141.581617 59.113508,129.685901 C58.1811958,114.975851 63.0184589,100.781285 72.7331651,89.7178527 C82.4478713,78.6523722 95.8782058,72.0446273 110.548672,71.1106126 C126.326472,70.1076391 141.786237,75.9623004 152.971939,87.1738914 C160.679008,96.3017009 165.131496,107.405416 165.886744,119.326394 C166.818375,134.036444 161.980431,148.228279 152.265044,159.28898 C142.547614,170.349682 129.113874,176.955378 114.436598,177.889393 C113.274102,177.963131 112.110925,178 110.953196,178" id="Fill-53" fill="#000000"></path>
                <path d="M110.054572,88.9792913 C109.721449,88.8952298 109.463015,88.5627705 109.44583,88.1530655 L109.001006,77.9346746 C108.979855,77.4439374 109.309673,77.0251447 109.738634,77.0009107 C110.172222,76.9789487 110.533766,77.3568467 110.554256,77.8468266 L110.99908,88.0652175 C111.020231,88.5559547 110.690413,88.9755048 110.260791,88.9989814 C110.190068,89.0027679 110.120007,88.9959521 110.054572,88.9792913" id="Fill-55" fill="#000000"></path>
                <path d="M114.054212,171.978369 C113.720942,171.894302 113.462394,171.56182 113.445202,171.152087 L113.000843,160.934515 C112.981666,160.443745 113.309646,160.024166 113.739457,160.000688 C114.174559,159.981754 114.534278,160.355891 114.555438,160.845904 L114.999136,171.065748 C115.019634,171.556519 114.690333,171.97534 114.260521,171.999575 C114.189106,172.001848 114.119675,171.995031 114.054212,171.978369" id="Fill-57" fill="#000000"></path>
                <path d="M130.594664,93.9824953 C130.516675,93.9656997 130.440621,93.9346925 130.367144,93.8914116 C130.008784,93.6750071 129.892769,93.2086069 130.108687,92.848794 L134.592693,85.3670116 C134.806678,85.0071987 135.272674,84.8947976 135.632323,85.1066802 C135.991327,85.3230847 136.107343,85.7888389 135.891425,86.1486518 L131.408063,93.6304342 C131.235973,93.9185429 130.904683,94.0503236 130.594664,93.9824953" id="Fill-59" fill="#000000"></path>
                <path d="M88.5947092,162.982156 C88.5160703,162.965358 88.4406543,162.935638 88.3671721,162.892352 C88.0087851,162.675917 87.8927605,162.209453 88.1086951,161.850236 L92.5924007,154.366775 C92.8070462,154.006913 93.2737229,153.895142 93.6321099,154.106408 C93.9911415,154.322842 94.1071661,154.789307 93.8918761,155.149169 L89.4075259,162.631984 C89.2360673,162.919487 88.9041081,163.050639 88.5947092,162.982156" id="Fill-61" fill="#000000"></path>
                <path d="M143.654502,106.981725 C143.432695,106.936428 143.228604,106.804534 143.108134,106.602696 C142.882075,106.225664 143.021679,105.746715 143.423482,105.534885 L151.756478,101.101771 C152.155447,100.889274 152.664965,101.019836 152.892442,101.397533 C153.117792,101.774565 152.978188,102.252848 152.576384,102.465344 L144.244097,106.898459 C144.057723,106.997046 143.84938,107.021693 143.654502,106.981725" id="Fill-63" fill="#000000"></path>
                <path d="M72.6546137,147.981831 C72.4328081,147.93586 72.2294273,147.803277 72.1082491,147.601404 C71.8814831,147.225641 72.0225032,146.74661 72.425013,146.534743 L80.756541,142.102203 C81.1555076,141.889004 81.6636054,142.019589 81.8917888,142.398683 C82.1185549,142.774446 81.9775347,143.252811 81.5764422,143.466677 L73.2449142,147.899216 C73.0571235,147.996488 72.8487822,148.021806 72.6546137,147.981831" id="Fill-65" fill="#000000"></path>
                <path d="M149.698525,122.9816 C149.316897,122.908816 149.020833,122.618342 149.001146,122.260378 C148.976916,121.831615 149.354757,121.46571 149.846936,121.444537 L160.065315,121.000555 C160.563551,120.984675 160.975467,121.311541 160.99894,121.738981 C161.02317,122.168406 160.645329,122.53431 160.153907,122.554822 L149.934771,122.998804 C149.85375,123.002774 149.773488,122.996819 149.698525,122.9816" id="Fill-67" fill="#000000"></path>
                <path d="M65.6985123,125.982657 C65.3176139,125.909228 65.0207706,125.618821 65.001082,125.260939 C64.9776071,124.832274 65.3547193,124.466454 65.846934,124.445947 L76.0645533,124.000744 C76.5613115,123.982222 76.9747718,124.311658 76.9990039,124.739 C77.0224788,125.168326 76.6453666,125.533485 76.1531519,125.555315 L65.9347754,125.998533 C65.8537492,126.003164 65.7734804,125.996549 65.6985123,125.982657" id="Fill-69" fill="#000000"></path>
                <path d="M151.998229,146.981043 C151.92746,146.96589 151.855291,146.939716 151.788726,146.905278 L143.435964,142.526049 C143.035177,142.315973 142.88313,141.826255 143.096837,141.430209 C143.310543,141.036919 143.806622,140.882634 144.211613,141.096842 L152.563674,145.475382 C152.965162,145.685458 153.117209,146.175177 152.902802,146.571222 C152.725531,146.899079 152.349968,147.057497 151.998229,146.981043" id="Fill-71" fill="#000000"></path>
                <path d="M80.9980008,107.98133 C80.927935,107.965487 80.8550665,107.939999 80.7885039,107.904868 L72.4359529,103.525166 C72.0351762,103.315756 71.8831333,102.825295 72.0968342,102.429207 C72.310535,102.036563 72.8080026,101.883638 73.211582,102.095804 L81.564133,106.474817 C81.9649097,106.684916 82.1169526,107.175377 81.9032517,107.570776 C81.7252845,107.898668 81.3504321,108.057103 80.9980008,107.98133" id="Fill-73" fill="#000000"></path>
                <path d="M136.091042,162.982036 C135.899614,162.93916 135.724722,162.819625 135.615335,162.637076 L131.111386,155.16293 C130.893884,154.803677 131.005179,154.333336 131.356871,154.112457 C131.709199,153.892878 132.170278,154.004616 132.385237,154.36257 L136.88855,161.836715 C137.106052,162.195968 136.995393,162.666959 136.643065,162.887188 C136.473261,162.995029 136.273566,163.022964 136.091042,162.982036" id="Fill-75" fill="#000000"></path>
                <path d="M93.0907487,93.9820407 C92.8993619,93.9391746 92.7251427,93.8196692 92.6151429,93.6365142 L88.1115123,86.1635313 C87.8940562,85.8037162 88.0046918,85.334138 88.3569452,85.1133129 C88.7066554,84.8924877 89.1695444,85.0041993 89.385093,85.3633649 L93.8887236,92.8363478 C94.1061798,93.1961629 93.9949084,93.6663906 93.6432907,93.8872157 C93.4735223,93.9950304 93.2732338,94.0229583 93.0907487,93.9820407" id="Fill-77" fill="#000000"></path>
                <path d="M114.535622,121.850127 C116.274959,120.488413 118.787575,120.795572 120.149984,122.534941 C121.511674,124.275029 121.204521,126.789129 119.464464,128.150124 C117.725127,129.511119 115.210353,129.204679 113.850102,127.46603 C112.488412,125.725222 112.795565,123.211122 114.535622,121.850127" id="Fill-79" fill="#000000"></path>
                <path d="M116.078562,126 C116.078562,126 120.919509,137.905287 108.410124,147 C108.410124,147 105.325044,135.43287 116.078562,126" id="Fill-81" fill="#000000"></path>
                <path d="M117.000043,124 C117.000043,124 101.341425,119.222553 94.000043,99 C94.000043,98.9993353 109.522368,104.616342 117.000043,124" id="Fill-83" fill="#000000"></path>
                <path d="M161.704108,162 L161.999223,175.350684 C162.05561,177.944848 159.193801,179.727913 156.6088,178.708632 L146.000043,174.522011 L161.704108,162 Z" id="Fill-85" fill="#000000"></path>
                <path d="M170.851148,174.192195 C170.851148,174.192195 186.295812,163.769646 194.271167,161.705639 C200.718152,160.037921 206.765482,161.471718 209.385741,164.480353 C210.324861,165.558452 210.172092,167.209658 209.031099,168.068973 C202.580023,172.928335 178.146545,191.262912 164.211156,200.69405 C148.055844,211.627097 129.243444,220.910314 123.108135,224.004261 C116.973509,227.098208 109.249812,230.748749 98.1563343,230.748749 C89.7465422,231.246175 78.0931387,231.015694 63.8931321,229.961675 C61.8982702,229.815818 59.8686261,229.658265 57.7776016,229.475945 C45.4790223,228.415733 13.6560306,228.684054 3.97293693,228.814086 C2.4582059,228.834039 1.22173253,227.609394 1.21423049,226.080653 C1.17740227,219.083668 1.07646567,200.287441 1.00004295,186.127662 C0.993261169,184.817017 1.89896257,183.689381 3.17090015,183.423124 C17.8987779,180.342249 37.5459511,176.65662 51.6388831,175.629432 C56.0241692,175.314327 60.2648705,175.544808 64.3016525,176.138554 C65.5265318,176.320187 66.7520931,176.538284 67.9415082,176.792845 C67.9776544,176.792845 68.0138007,176.805229 68.0499469,176.816925 C69.2993783,177.072174 70.5249396,177.374895 71.7259488,177.702384 C75.2341777,178.635315 78.5132533,179.786343 81.493611,181.022684 C89.2664113,184.221895 95.0566259,187.882068 97.8201063,189.287657 C98.6855695,189.736923 99.2495869,189.95502 99.4896523,189.869707 C100.247359,189.615834 104.12728,189.886219 109.917494,187.389458 C109.961143,187.366754 119.080901,184.814953 128.167923,181.046076 C134.004514,178.624995 139.262083,174.822406 143.965183,173.775266 C144.914533,173.569553 145.851607,173.375536 146.776404,173.217984 C147.028746,173.18152 147.280405,173.132671 147.533429,173.096207 C148.662827,172.915263 149.77995,172.781102 150.885479,172.684782 C154.044521,172.381373 157.060343,172.369677 159.88384,172.551309 C162.982867,172.757022 165.854786,173.2056 168.437535,173.78765 C170.5763,174.260308 172.510464,174.829974 174.216156,175.411336 C174.516238,175.520728 174.816319,175.629432 175.104807,175.738825 C175.153229,175.751209 175.20097,175.775289 175.249392,175.786985 C175.321684,175.811753 175.381701,175.835833 175.453311,175.883993 C178.216792,177.011629 178.721475,179.568246 177.195831,181.68867 C177.099669,181.834527 176.978954,181.979695 176.859603,182.125552 C176.702743,182.2948 176.547246,182.453041 176.366515,182.609905 C176.174871,182.792226 175.957994,182.961475 175.729523,183.131411" id="Fill-87" fill="#F2E9DA"></path>
                <path d="M57.6917099,229.119144 C59.7856428,229.299839 61.8193777,229.456579 63.816857,229.601682 C77.6281949,230.617408 89.4803614,230.887082 98.0941487,230.38401 C108.702679,230.382641 116.141921,227.104119 122.855367,223.745516 L124.040173,223.154834 C131.440424,219.465641 148.771293,210.826495 164.008229,200.598738 C177.831196,191.320999 201.89056,173.425332 208.935095,168.162585 C209.328434,167.868955 209.571962,167.439804 209.622584,166.953159 C209.674573,166.455563 209.519973,165.97234 209.186148,165.59247 C206.543592,162.582937 200.592199,161.533673 194.709212,163.042888 C188.103165,164.738959 176.08477,172.340476 172.478362,174.682669 C173.202106,174.895534 173.924482,175.12414 174.642754,175.367121 C174.950584,175.477317 175.246102,175.584092 175.530674,175.690866 C175.562825,175.701133 175.594977,175.712084 175.626444,175.72372 C175.754365,175.766156 175.863131,175.806538 175.978055,175.873615 C177.434436,176.47867 178.435228,177.505347 178.797784,178.769529 C179.161709,180.039186 178.899593,180.642188 178.000043,181.882414 C177.911798,182.016566 177.612978,182.50458 177.482321,182.662688 C177.266155,182.89814 177.043149,182.710867 176.842717,182.884033 C176.632708,183.082524 175.843293,183.476805 175.626444,183.637651 L175.536147,183.144542 C175.720845,183.008336 175.93359,182.846806 176.112132,182.678431 C176.295463,182.518954 176.435012,182.378641 176.575246,182.228746 C176.664175,182.118549 176.764049,182.001508 176.842717,181.882414 C177.506263,180.966618 177.727901,180.003595 177.482321,179.147346 C177.230584,178.267826 176.51368,177.566947 175.40891,177.120001 L175.285778,177.054978 C175.246786,177.041973 175.196849,177.024178 175.14828,177.006382 L175.074401,176.981742 C174.78846,176.873598 174.490891,176.766824 174.192637,176.660049 C172.303924,176.020772 170.378956,175.484162 168.482035,175.0687 C165.712927,174.449956 162.861046,174.041338 160.003693,173.853114 C157.009526,173.660099 154.011255,173.705273 151.087548,173.983844 C149.946522,174.08309 148.831491,174.218611 147.767764,174.388355 C147.635739,174.40752 147.514659,174.427369 147.393579,174.447218 C147.262238,174.470489 147.130213,174.492392 146.997504,174.510872 C146.043912,174.672402 145.059538,174.877053 144.225659,175.05638 C141.522905,175.653221 138.558838,177.219246 135.421017,178.877672 C133.203951,180.049453 130.911639,181.260932 128.496194,182.254071 C120.934503,185.365587 113.266782,187.679033 110.321185,188.53049 L110.15222,188.579086 C105.611375,190.50787 102.210187,190.804238 100.569108,190.946604 C100.205867,190.978773 99.7933742,191.014365 99.6873437,191.048587 C99.2461196,191.203273 98.688604,191.048587 97.4839598,190.429159 C96.7526909,190.060239 95.7977316,189.528421 94.6909092,188.912414 C91.5831871,187.182121 86.8850064,184.567517 81.1620915,182.231484 C77.959968,180.913915 74.6928581,179.811264 71.4496905,178.955699 C70.1239662,178.598416 68.9323194,178.313684 67.8008705,178.085077 L67.685947,178.059753 C66.5360283,177.814719 65.3218071,177.599117 64.077487,177.415684 C59.8123215,176.793517 55.5868319,176.625142 51.5248347,176.914665 C37.3037399,177.943396 17.2872189,181.691452 2.9997695,184.656495 C2.04959871,184.853617 1.36347826,185.701653 1.36620147,186.672889 C1.44488238,200.758899 1.54544041,219.458797 1.5823801,226.419668 C1.58511637,226.971335 1.80265007,227.487412 2.19530525,227.872073 C2.58659228,228.25742 3.09553906,228.461386 3.65647502,228.457964 C5.50824777,228.432639 13.9380208,228.329287 23.8741121,228.329287 C35.9492848,228.329287 50.2517837,228.482604 57.6917099,229.119144 Z M63.716983,230.966478 C61.7133471,230.821375 59.6748238,230.664635 57.5747342,230.483256 C44.0780677,229.328586 7.76909332,229.772795 3.67494486,229.826867 C2.72819441,229.830289 1.89021081,229.49217 1.23624156,228.84947 C0.582272319,228.206086 0.21903208,227.346415 0.214243602,226.426512 C0.177303917,219.465641 0.0767458846,200.767113 4.29522343e-05,186.680418 C-0.00807857806,185.058953 1.1363676,183.644192 2.7220378,183.315655 C17.0498472,180.343767 37.1299865,176.583391 51.4263288,175.549869 C55.5902523,175.251448 59.9135636,175.424615 64.2758668,176.061839 C65.5331842,176.245956 66.7610867,176.464981 67.926055,176.710699 C68.0013025,176.719597 68.0635527,176.736023 68.1100693,176.751081 C69.259304,176.984479 70.4673685,177.272633 71.8019856,177.633339 C75.0998787,178.503277 78.4244503,179.624408 81.6806152,180.964564 C87.4787777,183.331397 92.2186865,185.969958 95.3558235,187.715993 C96.4496487,188.32447 97.3936628,188.850129 98.1050938,189.209466 C98.9246076,189.630404 99.2242295,189.713907 99.3234194,189.729649 C99.579945,189.658466 99.9199269,189.629035 100.45008,189.583177 C102.030961,189.445602 105.319962,189.159501 109.662427,187.3019 C109.626855,187.321065 109.734938,187.275206 109.941527,187.214975 C112.865918,186.370362 120.476178,184.073343 127.976986,180.987836 C130.330181,180.019337 132.593763,178.8236 134.782781,177.667562 C138.004742,175.964647 141.047478,174.35687 143.934246,173.718962 C144.787279,173.535529 145.790123,173.326771 146.788179,173.158396 C146.926361,173.137862 147.047441,173.118013 147.167837,173.098164 C147.299862,173.075577 147.431887,173.05299 147.563912,173.03451 C148.64816,172.862028 149.795343,172.721716 150.963047,172.621102 C153.955162,172.337054 157.027996,172.29188 160.091938,172.486949 C163.020434,172.67928 165.942774,173.098849 168.776868,173.732651 C169.423313,173.873648 170.072494,174.029018 170.723043,174.197393 C171.895536,173.415065 186.507917,163.734869 194.369914,161.717106 C200.729012,160.084689 207.245446,161.307804 210.213618,164.688994 C210.793708,165.348805 211.074176,166.226956 210.983195,167.095525 C210.892898,167.966832 210.455779,168.734786 209.754609,169.259076 C202.703233,174.527983 178.619926,192.440077 164.769597,201.735612 C149.460149,212.011965 132.073871,220.678489 124.649678,224.380002 L123.467608,224.969999 C116.607772,228.401839 109.000249,231.751544 98.1345087,231.751544 C95.3058865,231.917866 92.1236011,232 88.6355371,232 C81.4822354,232 73.0422014,231.652983 63.716983,230.966478 Z" id="Fill-89" fill="#000000"></path>
                <path d="M58.000043,175.928447 C58.000043,175.928447 87.8338076,180.062314 99.93823,191.049316 C99.93823,191.049316 113.820239,186.373393 129.890364,181.099411 C134.740754,179.507122 139.716355,174.994368 144.661166,174.155012 C160.047077,171.538071 170.310965,173.826598 176.762415,176.473268 C179.460269,177.579505 179.792797,181.303373 177.35426,182.910181 C169.11496,188.341111 153.222047,198.79781 144.659798,204.31793 C132.762008,211.988297 122.708174,218 122.708174,218" id="Fill-91" fill="#F2E9DA"></path>
                <path d="M122.041797,216.817482 C122.141735,216.757703 132.157267,210.761973 143.833669,203.232612 C152.742408,197.487677 169.516316,186.443056 176.314804,181.961032 C177.242798,181.349503 177.732969,180.317462 177.626912,179.200907 C177.521536,178.098094 176.853924,177.191795 175.841629,176.77678 C167.123928,173.19968 156.516248,172.437674 144.313643,174.513436 C141.67243,174.961433 138.919043,176.574082 136.254715,178.133137 C134.11999,179.382992 131.913201,180.675447 129.734286,181.39073 C113.951597,186.571546 100.115994,191.230845 99.977985,191.276882 L99.6033883,191.403997 L99.3090138,191.136711 C87.5755039,180.485117 59.8969565,176.984974 59.602582,176.944435 L57.000043,175.502876 C57.0741465,175.513183 65.7394413,175.978357 74.5917521,178.353699 C86.2967084,181.493796 94.8145336,185.36017 99.919518,189.848378 C102.230324,189.071256 114.967971,184.793303 129.314819,180.083158 C131.356405,179.413224 133.499968,178.15856 135.573507,176.944435 C138.341851,175.324227 141.204694,173.647677 144.087933,173.157767 C156.542082,171.040778 167.397228,171.829581 176.352876,175.502876 C177.843784,176.114405 178.825486,177.4474 178.979811,179.069669 C179.134137,180.680257 178.397181,182.229005 177.056519,183.11263 C170.256672,187.595341 153.479364,198.643398 144.565187,204.390394 C132.868389,211.933498 122.833821,217.940221 122.733883,218 L122.041797,216.817482 Z" id="Fill-93" fill="#000000"></path>
                <g transform="translate(25, 203)">
                    <mask id="mask-2" fill="white">
                        <use xlink:href="#path-1"></use>
                    </mask>
                    <g id="Clip-96"></g>
                    <path d="M35,17.5003677 C25.3348679,17.5003677 17.5003343,9.66515056 17.5003343,0 C17.5003343,9.66515056 9.66513209,17.5003677 0,17.5003677 C9.66513209,17.5003677 17.5003343,25.3349163 17.5003343,35.0000669 C17.5003343,25.3349163 25.3348679,17.5003677 35,17.5003677" id="Fill-95" fill="#000000" mask="url(#mask-2)"></path>
                </g>
                <g transform="translate(25, 203)">
                    <mask id="mask-4" fill="white">
                        <use xlink:href="#path-3"></use>
                    </mask>
                    <g id="Clip-98"></g>
                    <path d="M4.89082677,17.5003677 C10.9844693,19.2059432 15.7950638,24.0151178 17.5,30.1086556 C19.2056048,24.0151178 24.0155307,19.2059432 30.1091732,17.5003677 C24.0155307,15.7947922 19.2056048,10.9849491 17.5,4.89141128 C15.7950638,10.9849491 10.9844693,15.7947922 4.89082677,17.5003677 M18.1686024,35.0000669 L16.8313976,35.0000669 C16.8313976,25.7193561 9.28087033,18.1689587 0,18.1689587 L0,16.8317768 C9.28087033,16.8317768 16.8313976,9.28137936 16.8313976,0 L18.1686024,0 C18.1686024,9.28137936 25.7191297,16.8317768 35,16.8317768 L35,18.1689587 C25.7191297,18.1689587 18.1686024,25.7193561 18.1686024,35.0000669" id="Fill-97" fill="#F2E9DA" mask="url(#mask-4)"></path>
                </g>
                <g transform="translate(179, 84)">
                    <mask id="mask-6" fill="white">
                        <use xlink:href="#path-5"></use>
                    </mask>
                    <g id="Clip-100"></g>
                    <path d="M35.0002006,17.5003343 C25.3351977,17.5003343 17.5007689,9.66513209 17.5007689,0 C17.5007689,9.66513209 9.66500286,17.5003343 0,17.5003343 C9.66500286,17.5003343 17.5007689,25.3348679 17.5007689,35 C17.5007689,25.3348679 25.3351977,17.5003343 35.0002006,17.5003343" id="Fill-99" fill="#000000" mask="url(#mask-6)"></path>
                </g>
                <g transform="translate(179, 84)">
                    <mask id="mask-8" fill="white">
                        <use xlink:href="#path-7"></use>
                    </mask>
                    <g id="Clip-102"></g>
                    <path d="M4.89075203,17.5003343 C10.98497,19.2059065 15.795491,24.0150719 17.5004012,30.1085981 C19.2059799,24.0150719 24.0151637,19.2059065 30.1093817,17.5003343 C24.0151637,15.7947621 19.2059799,10.9849281 17.5004012,4.89140194 C15.795491,10.9849281 10.98497,15.7947621 4.89075203,17.5003343 M18.1689934,35 L16.8318089,35 C16.8318089,25.719307 9.2807285,18.168924 0,18.168924 L0,16.8317446 C9.2807285,16.8317446 16.8318089,9.28136163 16.8318089,0 L18.1689934,0 C18.1689934,9.28136163 25.7194052,16.8317446 35.0001337,16.8317446 L35.0001337,18.168924 C25.7194052,18.168924 18.1689934,25.719307 18.1689934,35" id="Fill-101" fill="#F2E9DA" mask="url(#mask-8)"></path>
                </g>
                <path d="M49.000043,39.5 C39.3349109,39.5 31.5003772,31.6649475 31.5003772,22 C31.5003772,31.6649475 23.665175,39.5 14.000043,39.5 C23.665175,39.5 31.5003772,47.3350525 31.5003772,57 C31.5003772,47.3350525 39.3349109,39.5 49.000043,39.5" id="Fill-103" fill="#000000"></path>
                <path d="M18.8908697,39.5 C24.9845123,41.2055396 29.7951068,46.0152818 31.500043,52.1086915 C33.2056478,46.0152818 38.0155736,41.2055396 44.1092162,39.5 C38.0155736,37.7944604 33.2056478,32.9847182 31.500043,26.8913085 C29.7951068,32.9847182 24.9845123,37.7944604 18.8908697,39.5 M32.1686454,57 L30.8314405,57 C30.8314405,47.7188157 23.2809133,40.1685769 14.000043,40.1685769 L14.000043,38.8314231 C23.2809133,38.8314231 30.8314405,31.2811843 30.8314405,22 L32.1686454,22 C32.1686454,31.2811843 39.7191726,38.8314231 49.000043,38.8314231 L49.000043,40.1685769 C39.7191726,40.1685769 32.1686454,47.7188157 32.1686454,57" id="Fill-105" fill="#F2E9DA"></path>
                <polygon id="Fill-107" fill="#F2E9DA" points="108.703668 42 126.000043 43.5529794 125.295055 52 108.000043 50.4470206"></polygon>
                <path d="M108.438168,49.9181534 L123.988396,51.4079456 L124.561918,44.0818466 L109.010361,42.5920544 L108.438168,49.9181534 Z M125.198574,53 L107.000043,51.2571271 L107.800847,41 L126.000043,42.7428729 L125.198574,53 Z" id="Fill-109" fill="#000000"></path>
                <path d="M203.946563,150 C197.461177,150.822297 191.686989,156.148156 190.000043,162.860782 C190.825951,163.27727 191.665481,162.675422 192.438336,162.157482 C196.180732,159.647875 199.662165,156.699659 202.800903,153.384537 C203.662658,152.475281 204.172398,151.268534 203.946563,150" id="Fill-111" fill="#F2E9DA"></path>
                <path d="M190.842711,161.464511 C196.32382,158.635387 200.213815,155.658002 202.512696,152.532355 C202.809953,152.128192 203.420762,151.504309 203.513633,150.646629 C197.730604,151.638116 192.696435,155.941871 190.842711,161.464511 Z M188.70329,164.207275 L189.129682,162.716309 C190.948763,155.968933 196.213795,150.160711 203.204877,149.33374 L204.000043,149.33374 L204.623456,150.202271 C204.882904,151.55935 204.689255,152.449731 203.550486,153.570638 C200.285279,156.785658 196.973273,160.286581 193.08598,162.716309 L192.417523,162.795268 C192.012136,163.048746 190.774059,163.519415 188.70329,164.207275 Z" id="Fill-113" fill="#000000"></path>
                <path d="M201.487152,168.777855 C199.518918,170.311407 197.546855,173.548184 196.735517,175.910645 C203.414797,172.482666 207.470665,169.188517 208.903119,166.028198 C206.549733,166.145998 203.389874,167.293146 201.487152,168.777855 Z M194.958905,179.161987 L195.325442,176.285438 C195.965442,172.908749 197.887602,169.761196 200.600223,167.645827 C203.244452,165.583612 205.791494,164.826533 209.384565,165.032683 L210.418378,165.682983 L210.000043,167.470337 C208.58243,168.869377 206.832965,170.424042 204.751647,172.134333 C203.410916,173.138968 202.322751,173.941887 201.487152,174.543091 C201.056283,174.853096 200.882726,175.586571 200.411786,175.910645 C199.915048,176.251833 198.90607,176.307469 198.380536,176.63501 C197.875879,176.949621 197.477343,177.451146 197.000043,177.778687 L194.958905,179.161987 Z" id="Fill-117" fill="#000000"></path>
                <path d="M163.799558,182.615382 C167.679146,180.107291 171.609916,179.513347 176.000043,180.365304 C169.578634,185.250642 163.571159,190.383701 157.000043,195 C157.014758,189.884582 159.918691,185.122003 163.799558,182.615382 Z" id="Fill-119" fill="#F2E9DA"></path>
                <path d="M163.356912,182.982352 C159.556205,185.254193 156.958296,190.005399 156.466837,194.119629 C160.595136,191.97522 162.285443,190.434937 169.008808,186.295192 C171.181676,184.957303 174.016217,182.088434 176.09027,180.605874 C175.413394,180.538452 172.920715,180.46867 172.271411,180.46867 C169.075894,180.46867 166.180216,181.293862 163.356912,182.982352 Z M155.000043,196 L155.004179,194.688195 C155.020721,189.579485 158.034267,184.483233 162.681414,181.704992 C166.864674,179.20157 171.1851,178.462122 176.278903,179.377454 L178.000043,179.686718 L178.374555,180.746582 C175.793189,182.564055 172.269118,185.680329 169.792523,187.5 C165.677964,190.525401 160.895064,192.804944 156.466837,195.666016 C156.438152,195.684549 156.081895,195.297632 156.053268,195.316249 L155.000043,196 Z" id="Fill-121" fill="#000000"></path>
            </g>
        </g>
    </g>
</svg>